<?xml version="1.0" encoding="UTF-8" standalone="no"?>
<svg width="512px" height="36px" viewBox="0 0 512 36" version="1.1" xmlns="http://www.w3.org/2000/svg" xmlns:xlink="http://www.w3.org/1999/xlink">
    <!-- Generator: Sketch 3.8.2 (29753) - http://www.bohemiancoding.com/sketch -->
    <title>Page 1</title>
    <desc>Created with Sketch.</desc>
    <defs>
        <polygon id="path-1" points="2.97296544 2.10897219 5.84224298 2.10897219 5.84224298 0.17619504 0.103687903 0.17619504 0.103687903 2.10897219 2.97296544 2.10897219"></polygon>
        <polygon id="path-3" points="6.47646068 0 0.0228709359 0 0.0228709359 1.8467886 6.47646068 1.8467886 6.47646068 0"></polygon>
        <polygon id="path-5" points="5.84224298 1.92999714 5.84224298 0 0.103687903 0 0.103687903 1.92999714 5.84224298 1.92999714"></polygon>
        <polygon id="path-7" points="6.4920243 0 0.0384345604 0 0.0384345604 1.8885846 6.4920243 1.8885846 6.4920243 0"></polygon>
        <polygon id="path-9" points="6.54184688 0 0.0880673384 0 0.0880673384 1.87573904 6.54184688 1.87573904 6.54184688 0"></polygon>
    </defs>
    <g id="Page-1" stroke="none" stroke-width="1" fill="none" fill-rule="evenodd">
        <g id="Volet-d'informations-supplémentaires" transform="translate(-271.000000, -761.000000)">
            <g id="Group-9" transform="translate(76.000000, 594.000000)">
                <g id="Group-8" transform="translate(193.000000, 167.000000)">
                    <g id="Page-1" transform="translate(2.000000, 0.000000)">
                        <path d="M6.72261269,4.89329479 C5.78917482,4.79551518 4.84036313,4.7220846 3.87560821,4.67281134 L3.87560821,30.4034224 C4.84036313,30.3545326 5.78917482,30.2822524 6.72261269,30.1856231 L6.72261269,4.89329479 Z" id="Fill-1" fill="#FFFFFF"></path>
                        <path d="M13.2986236,6.0479379 L13.2986236,29.0460879 C14.2639479,28.8062403 15.2125698,28.5357166 16.1456281,28.2345171 L16.1456281,6.87024533 C15.2125698,6.56521126 14.2639479,6.29104487 13.2986236,6.0479379" id="Fill-3" fill="#FFFFFF"></path>
                        <path d="M22.7217339,9.66929239 L22.7217339,25.471821 C23.6997749,24.9595325 24.6474478,24.4167597 25.5687384,23.8492545 L25.5687384,11.3133321 C24.647258,10.7381578 23.6997749,10.1882913 22.7217339,9.66929239" id="Fill-5" fill="#FFFFFF"></path>
                        <path d="M48.1761936,8.81295382 L48.1761936,26.562639 C49.0978638,27.1594781 50.0457265,27.731393 51.0231981,28.2737823 L51.0231981,7.12405054 C50.0457265,7.65953776 49.0978638,8.2239754 48.1761936,8.81295382" id="Fill-7" fill="#FEFEFE"></path>
                        <path d="M57.5992849,4.21573955 L57.5992849,31.2205533 C58.5321534,31.5447598 59.4811549,31.8365649 60.4462894,32.0975023 L60.4462894,3.35010233 C59.4811549,3.60778038 58.5321534,3.89575095 57.5992849,4.21573955" id="Fill-9" fill="#FEFEFE"></path>
                        <path d="M67.0223003,2.10385314 L67.0223003,33.3601631 C67.9557382,33.4717469 68.9045499,33.5585982 69.8693048,33.620717 L69.8693048,1.84675026 C68.9045499,1.90810218 67.9557382,1.99380314 67.0223003,2.10385314" id="Fill-11" fill="#FEFEFE"></path>
                        <path d="M76.3229894,1.78771821 L76.3229894,33.6803626 C77.2877444,33.6366493 78.2363663,33.5685871 79.1699939,33.4765592 L79.1699939,1.98883747 C78.2363663,1.89815166 77.2877444,1.831048 76.3229894,1.78771821" id="Fill-13" fill="#FEFEFE"></path>
                        <path d="M85.7460808,3.08262713 L85.7460808,32.3685819 C86.7110255,32.1333356 87.6604066,31.8695224 88.5930852,31.5727325 L88.5930852,3.86812341 C87.6604066,3.575168 86.7110255,3.3148058 85.7460808,3.08262713" id="Fill-15" fill="#FEFEFE"></path>
                        <path d="M95.1690962,6.56570974 L95.1690962,28.8395237 C96.1467575,28.3310697 97.0951896,27.7925148 98.0161007,27.2273103 L98.0161007,8.15702512 C97.0951896,7.59910612 96.1467575,7.06764512 95.1690962,6.56570974" id="Fill-17" fill="#FEFEFE"></path>
                        <path d="M121.357912,11.5123807 L121.357912,23.6525833 C122.279772,24.2298665 123.226686,24.7837593 124.204917,25.3064009 L124.204917,9.83689816 C123.226686,10.3662502 122.279772,10.9276202 121.357912,11.5123807" id="Fill-19" fill="#FFFFFF"></path>
                        <path d="M130.780928,6.9786465 L130.780928,28.1276114 C131.714365,28.4368634 132.662228,28.7175484 133.627932,28.9652568 L133.627932,6.12988105 C132.662228,6.38084874 131.714176,6.66517654 130.780928,6.9786465" id="Fill-21" fill="#FFFFFF"></path>
                        <path d="M140.204038,4.9308345 L140.204038,30.1485819 C141.137476,30.2511546 142.086287,30.3291866 143.051042,30.3834447 L143.051042,4.69290409 C142.086287,4.74792909 141.137476,4.82711141 140.204038,4.9308345" id="Fill-23" fill="#FFFFFF"></path>
                        <path d="M149.504708,4.67863977 L149.504708,30.3975556 C150.469463,30.3473238 151.418275,30.2731263 152.351713,30.1749632 L152.351713,4.90410807 C151.418275,4.80460293 150.469463,4.72963855 149.504708,4.67863977" id="Fill-25" fill="#FFFFFF"></path>
                        <path d="M158.927723,6.0699479 L158.927723,29.0243847 C159.893427,28.7822363 160.84129,28.5071113 161.774728,28.203611 L161.774728,6.90164984 C160.84129,6.59393162 159.893427,6.31535557 158.927723,6.0699479" id="Fill-27" fill="#FFFFFF"></path>
                        <path d="M168.350834,9.71772206 L168.350834,25.4240049 C169.328875,24.9088405 170.276358,24.3628084 171.197838,23.7924273 L171.197838,11.3707728 C170.276358,10.7929144 169.328875,10.2397885 168.350834,9.71772206" id="Fill-29" fill="#FFFFFF"></path>
                        <path d="M193.248951,9.11378912 L193.248951,26.2580075 C194.17119,26.8684591 195.118484,27.4559037 196.095955,28.0134393 L196.095955,7.3811726 C195.118484,7.93142262 194.17119,8.51119824 193.248951,9.11378912" id="Fill-31" fill="#FFFFFF"></path>
                        <path d="M202.671966,4.3751395 L202.671966,31.059006 C203.604645,31.3954829 204.553836,31.6985998 205.518971,31.9712323 L205.518971,3.4748001 C204.553836,3.74398164 203.604645,4.04288052 202.671966,4.3751395" id="Fill-33" fill="#FFFFFF"></path>
                        <path d="M212.095076,2.15793869 L212.095076,33.305349 C213.028325,33.4257521 213.977326,33.5208476 214.942081,33.5914023 L214.942081,1.87571987 C213.977326,1.94531595 213.028325,2.03906935 212.095076,2.15793869" id="Fill-35" fill-opacity="0.7" fill="#FFFFFF"></path>
                        <path d="M221.395747,1.77065471 L221.395747,33.6978095 C222.360312,33.6617653 223.309123,33.6019472 224.242751,33.5185469 L224.242751,1.94761665 C223.309313,1.86517501 222.360312,1.80631551 221.395747,1.77065471" id="Fill-37" fill-opacity="0.7" fill="#FFFFFF"></path>
                        <path d="M230.818857,2.97297975 L230.818857,32.4796097 C231.784181,32.2552917 232.732803,31.9999144 233.665861,31.7148197 L233.665861,3.7279918 C232.732803,3.44653987 231.784181,3.19442183 230.818857,2.97297975" id="Fill-39" fill-opacity="0.7" fill="#FFFFFF"></path>
                        <path d="M240.382628,6.39741376 C240.335937,6.37402334 240.288487,6.35255017 240.241796,6.32935148 L240.241796,29.0790262 C240.287159,29.0560193 240.33328,29.0351213 240.378642,29.0121143 C241.309423,28.5381707 242.210026,28.0331677 243.088801,27.507075 L243.088801,7.88097984 C242.211354,7.3623644 241.31208,6.86464696 240.382628,6.39741376" id="Fill-41" fill-opacity="0.6" fill="#FFFFFF"></path>
                        <path d="M266.430688,11.8106085 L266.430688,23.3583816 C267.352359,23.9488939 268.300221,24.515057 269.277693,25.052078 L269.277693,10.0946721 C268.300221,10.6387869 267.352359,11.2124273 266.430688,11.8106085" id="Fill-43" fill-opacity="0.2" fill="#FFFFFF"></path>
                        <path d="M275.853609,7.13672355 L275.853609,27.9714515 C276.786477,28.2927822 277.735479,28.5817114 278.700613,28.8405398 L278.700613,6.2561318 C277.735479,6.51841125 276.786477,6.81117493 275.853609,7.13672355" id="Fill-45" fill-opacity="0.2" fill="#FFFFFF"></path>
                        <path d="M285.2767,4.98557191 L285.2767,30.0946114 C286.210138,30.20562 287.15895,30.2922796 288.123705,30.3545901 L288.123705,4.72214212 C287.15895,4.78541128 286.210138,4.87302949 285.2767,4.98557191" id="Fill-47" fill-opacity="0.2" fill="#FFFFFF"></path>
                        <path d="M294.577484,4.65735832 L294.577484,30.4186454 C295.542239,30.3760825 296.490861,30.3099374 297.424489,30.2200185 L297.424489,4.85847758 C296.490861,4.76740833 295.542239,4.70030467 294.577484,4.65735832" id="Fill-49" fill-opacity="0.2" fill="#FFFFFF"></path>
                        <path d="M304.000386,5.9589201 L304.000386,29.1340321 C304.96533,28.9030037 305.914712,28.6434084 306.84739,28.3519868 L306.84739,6.75131847 C305.914712,6.45587064 304.96533,6.19301601 304.000386,5.9589201" id="Fill-51" fill-opacity="0.2" fill="#FFFFFF"></path>
                        <path d="M313.423496,9.47321549 L313.423496,25.6655205 C314.401157,25.1653107 315.349779,24.6355752 316.270501,24.07919 L316.270501,11.0802523 C315.349779,10.5167733 314.401157,9.97994399 313.423496,9.47321549" id="Fill-53" fill-opacity="0.2" fill="#FFFFFF"></path>
                        <path d="M338.586119,9.24331835 L338.586119,26.1267911 C339.508738,26.7431861 340.455652,27.3375329 341.433123,27.9013953 L341.433123,7.49191281 C340.455652,8.04829802 339.508738,8.63497574 338.586119,9.24331835" id="Fill-55" fill-opacity="0.2" fill="#FFFFFF"></path>
                        <path d="M348.009229,4.44941367 L348.009229,30.9837349 C348.942667,31.3259635 349.89034,31.6388583 350.856234,31.9168592 L350.856234,3.52855972 C349.89034,3.8027261 348.942667,4.11159467 348.009229,4.44941367" id="Fill-57" fill-opacity="0.2" fill="#FFFFFF"></path>
                        <path d="M357.43232,2.1825178 L357.43232,33.2804631 C358.365758,33.4047007 359.31438,33.5042059 360.279325,33.5782116 L360.279325,1.88860377 C359.31438,1.9616509 358.365758,2.05981397 357.43232,2.1825178" id="Fill-59" fill-opacity="0.2" fill="#FFFFFF"></path>
                        <path d="M366.732915,1.76329248 L366.732915,33.7052101 C367.69748,33.6724252 368.646481,33.6164416 369.579919,33.5364923 L369.579919,1.92970955 C368.646481,1.85091068 367.69748,1.79550223 366.732915,1.76329248" id="Fill-61" fill-opacity="0.2" fill="#FFFFFF"></path>
                        <path d="M376.156025,2.92570043 L376.156025,32.5274258 C377.121729,32.307901 378.069781,32.0561664 379.003029,31.7760566 L379.003029,3.66748347 C378.069781,3.39101639 377.121729,3.14254112 376.156025,2.92570043" id="Fill-63" fill-opacity="0.2" fill="#FFFFFF"></path>
                        <path d="M385.920548,6.39750962 C385.807617,6.3407591 385.692598,6.28822652 385.579097,6.23262634 L385.579097,29.1770934 C385.691269,29.1213015 385.80477,29.0689607 385.916562,29.0120184 C386.776737,28.5741191 387.61053,28.1089949 388.426102,27.6260402 L388.426102,7.7633567 C387.611858,7.28749589 386.779394,6.82908202 385.920548,6.39750962" id="Fill-65" fill-opacity="0.2" fill="#FFFFFF"></path>
                        <path d="M411.767856,11.9426686 L411.767856,23.2279705 C412.689906,23.8244262 413.637389,24.397108 414.614861,24.9406476 L414.614861,10.2075596 C413.637389,10.7581931 412.689906,11.3383522 411.767856,11.9426686" id="Fill-67" fill-opacity="0.2" fill="#FFFFFF"></path>
                        <path d="M421.190967,7.20524597 L421.190967,27.9038494 C422.123455,28.2303566 423.073216,28.5227369 424.037971,28.7865501 L424.037971,6.31085004 C423.073216,6.57811433 422.123455,6.87452079 421.190967,7.20524597" id="Fill-69" fill-opacity="0.2" fill="#FFFFFF"></path>
                        <path d="M430.613868,5.00934578 L430.613868,30.071221 C431.547306,30.1860641 432.496118,30.2761747 433.460873,30.3419363 L433.460873,4.73498767 C432.496118,4.80170788 431.547306,4.89296886 430.613868,5.00934578" id="Fill-71" fill-opacity="0.2" fill="#FFFFFF"></path>
                        <path d="M439.914652,4.64984271 L439.914652,30.4258926 C440.879407,30.3869724 441.828029,30.3242784 442.761657,30.2380023 L442.761657,4.84022539 C441.828029,4.75299063 440.879407,4.68952974 439.914652,4.64984271" id="Fill-73" fill-opacity="0.2" fill="#FFFFFF"></path>
                        <path d="M449.337744,5.9107205 L449.337744,29.1815031 C450.302878,28.9552679 451.25188,28.6993154 452.184748,28.4126869 L452.184748,6.68969813 C451.25188,6.39923515 450.302878,6.14002329 449.337744,5.9107205" id="Fill-75" fill-opacity="0.2" fill="#FFFFFF"></path>
                        <path d="M458.760664,9.36698081 L458.760664,25.7703748 C459.739085,25.2763001 460.686378,24.7503991 461.607668,24.1997657 L461.607668,10.9581045 C460.686378,10.4001855 459.739085,9.86757412 458.760664,9.36698081" id="Fill-77" fill-opacity="0.2" fill="#FFFFFF"></path>
                        <path d="M483.65899,9.55604058 L483.65899,25.8098893 C484.581609,26.4395133 485.529282,27.0465139 486.505994,27.6249474 L486.505994,7.76456457 C485.529282,8.33552086 484.581609,8.93466069 483.65899,9.55604058" id="Fill-79" fill-opacity="0.200000003" fill="#FFFFFF"></path>
                        <path d="M493.081891,4.62257946 L493.081891,30.8083451 C494.01495,31.1632276 494.963571,31.4857086 495.928896,31.7754047 L495.928896,3.66798195 C494.963571,3.95403527 494.01495,4.27229835 493.081891,4.62257946" id="Fill-81" fill-opacity="0.200000003" fill="#FFFFFF"></path>
                        <path d="M502.505002,33.2120557 C503.43825,33.3454961 504.387061,33.4536289 505.352006,33.5362623 L505.352006,1.93005466 C504.387061,2.01153768 503.43825,2.11832836 502.505002,2.25004326 L502.505002,33.2120557 Z" id="Fill-83" fill-opacity="0.200000003" fill="#FFFFFF"></path>
                        <path d="M205.518971,31.9712132 L205.518971,33.7651816 C207.561222,34.3202247 209.745064,34.7552482 212.094982,35.0474367 L212.094982,33.3054257 C209.81548,33.0113199 207.627462,32.566902 205.518971,31.9712132" id="Fill-85" fill-opacity="0.7" fill="#FFFFFF"></path>
                        <path d="M0.854101342,2.87063708 C0.382447601,2.87063708 0,3.25696244 0,3.73339843 C0,4.20983443 0.382447601,4.59615979 0.854101342,4.59615979 C1.87883315,4.59615979 2.88534414,4.62223435 3.87553229,4.67284968 L3.87553229,2.94521801 C2.89559335,2.89690337 1.88984157,2.87063708 0.854101342,2.87063708" id="Fill-87" fill="#F8CA4D"></path>
                        <path d="M474.401215,18.5092027 C474.056158,18.216439 473.710721,17.9232919 473.364336,17.6303365 C472.918684,18.0026659 472.471325,18.3746119 472.021498,18.745791 C472.450067,19.1077674 472.877308,19.4697437 473.302461,19.8303779 C476.575567,22.6077026 479.88929,25.4189625 483.658914,27.8774489 L483.658914,25.8098893 C480.341205,23.5458118 477.337235,21.0002823 474.401215,18.5092027" id="Fill-89" fill-opacity="0.200000003" fill="#FFFFFF"></path>
                        <path d="M400.532931,18.5092027 C396.78001,21.693559 392.916625,24.9670673 388.42614,27.6260978 L388.42614,29.6092985 C393.424151,26.7936289 397.55933,23.285833 401.631685,19.8303779 C402.056838,19.4697437 402.483889,19.1077674 402.912647,18.745791 C402.462821,18.3748037 402.015461,18.0026659 401.56981,17.6303365 C401.223425,17.9234836 400.877988,18.216439 400.532931,18.5092027" id="Fill-91" fill-opacity="0.2" fill="#FFFFFF"></path>
                        <path d="M379.003029,31.7760374 L379.003029,33.5788252 C381.370598,32.8955182 383.547798,32.0511624 385.57904,31.0869786 L385.57904,29.1772085 C383.470549,30.2267097 381.28329,31.0917718 379.003029,31.7760374" id="Fill-93" fill-opacity="0.2" fill="#FFFFFF"></path>
                        <path d="M219.160127,33.7435551 C217.719543,33.7435551 216.31521,33.6915977 214.942005,33.5913256 L214.942005,35.3239421 C216.294142,35.4192293 217.698475,35.4690778 219.160127,35.4690778 C219.921036,35.4690778 220.665053,35.454315 221.395785,35.4280487 L221.395785,33.6977328 C220.65898,33.7253412 219.915912,33.7435551 219.160127,33.7435551" id="Fill-95" fill-opacity="0.7" fill="#FFFFFF"></path>
                        <path d="M411.767856,11.9426686 L411.767856,9.90099175 C408.553209,11.9106505 405.680202,14.187957 402.905511,16.5066761 C403.351731,16.8786221 403.80004,17.2507598 404.251764,17.6219389 C406.627305,15.6442982 409.092431,13.6959913 411.767856,11.9426686" id="Fill-97" fill-opacity="0.2" fill="#FFFFFF"></path>
                        <path d="M197.941232,29.0120376 C197.313183,28.6922407 196.699748,28.357681 196.095993,28.0133434 L196.095993,29.97718 C198.126667,31.0788303 200.302158,32.0635286 202.672004,32.8850692 L202.672004,31.058891 C201.049971,30.4737471 199.474628,29.7927408 197.941232,29.0120376" id="Fill-99" fill="#FFFFFF"></path>
                        <g id="Group-103" transform="translate(505.248394, 33.360106)">
                            <mask id="mask-2" fill="white">
                                <use xlink:href="#path-1"></use>
                            </mask>
                            <g id="Clip-102"></g>
                            <path d="M4.98819858,0.383449489 C3.31321095,0.383449489 1.68795099,0.31193616 0.103687903,0.17619504 L0.103687903,1.91264605 C1.65910135,2.04110163 3.2847409,2.10897219 4.98819858,2.10897219 C5.45985232,2.10897219 5.84229992,1.72264683 5.84229992,1.24621084 C5.84229992,0.76977485 5.45985232,0.383449489 4.98819858,0.383449489" id="Fill-101" fill-opacity="0.2" fill="#FFFFFF" mask="url(#mask-2)"></path>
                        </g>
                        <path d="M183.324938,18.5092027 C182.979882,18.216439 182.634445,17.9234836 182.288059,17.6303365 C181.842408,18.0026659 181.395049,18.3746119 180.945412,18.745791 C181.373981,19.1077674 181.801222,19.4697437 182.226185,19.8303779 C185.690799,22.7700934 189.200966,25.7475787 193.249027,28.3048034 L193.249027,26.25795 C189.664458,23.8851645 186.456074,21.1661242 183.324938,18.5092027" id="Fill-104" fill="#FFFFFF"></path>
                        <path d="M489.017508,29.0120376 C488.156574,28.5737548 487.322211,28.1082472 486.50607,27.6249091 L486.50607,29.6081098 C488.537313,30.7527066 490.711665,31.7822684 493.081891,32.6479057 L493.081891,30.8083067 C491.694641,30.2806802 490.339657,29.6851832 489.017508,29.0120376" id="Fill-106" fill-opacity="0.200000003" fill="#FFFFFF"></path>
                        <path d="M495.928896,31.7754047 L495.928896,33.5781925 C497.969818,34.1675543 500.153281,34.6361296 502.504907,34.9599527 L502.504907,33.2119982 C500.225405,32.8860661 498.037008,32.4080963 495.928896,31.7754047" id="Fill-108" fill-opacity="0.200000003" fill="#FFFFFF"></path>
                        <path d="M233.665861,31.7147813 L233.665861,33.5192946 C236.03362,32.8237172 238.210819,31.9668994 240.241872,30.9902535 L240.241872,29.0789495 C238.133571,30.1426384 235.945553,31.0182453 233.665861,31.7147813" id="Fill-110" fill-opacity="0.7" fill="#FFFFFF"></path>
                        <path d="M350.856234,31.91684 L350.856234,33.7090829 C352.898675,34.2746709 355.080998,34.7215813 357.432244,35.0231643 L357.432244,33.2803864 C355.152743,32.9768861 352.964535,32.5234571 350.856234,31.91684" id="Fill-112" fill-opacity="0.2" fill="#FFFFFF"></path>
                        <path d="M343.478487,29.0120376 C342.78154,28.6571551 342.100347,28.2861677 341.433199,27.9013762 L341.433199,29.8673217 C343.464252,30.9818176 345.638984,31.9807035 348.00921,32.8156648 L348.00921,30.9837349 C346.458162,30.4150793 344.94849,29.760531 343.478487,29.0120376" id="Fill-114" fill-opacity="0.2" fill="#FFFFFF"></path>
                        <path d="M364.697382,33.7435551 C363.187141,33.7435551 361.71543,33.6885301 360.279401,33.5782883 L360.279401,35.3086041 C361.693033,35.4132859 363.163227,35.4690778 364.697382,35.4690778 C365.389015,35.4690778 366.066412,35.4566156 366.732991,35.434759 L366.732991,33.7052101 C366.061287,33.7280254 365.384649,33.7435551 364.697382,33.7435551" id="Fill-116" fill-opacity="0.2" fill="#FFFFFF"></path>
                        <path d="M254.99467,18.5092027 C251.29774,21.646203 247.493762,24.8698628 243.088877,27.5070367 L243.088877,29.495414 C247.996923,26.6993004 252.075921,23.2394356 256.093424,19.8303779 C256.518577,19.4697437 256.945627,19.1077674 257.374196,18.745791 C256.92437,18.3746119 256.4772,18.0026659 256.031549,17.6303365 C255.685163,17.9234836 255.339727,18.216439 254.99467,18.5092027" id="Fill-118" fill-opacity="0.5" fill="#FFFFFF"></path>
                        <path d="M328.862194,18.5092986 C328.517137,18.2165349 328.1717,17.9233878 327.825315,17.6304323 C327.379474,18.0025701 326.932305,18.3747078 326.482478,18.7456952 C326.911047,19.1078632 327.338287,19.4696478 327.76344,19.8304738 C331.170925,22.7216829 334.622064,25.649895 338.586043,28.1783609 L338.586043,26.1267144 C335.08176,23.7853718 331.93544,21.1169468 328.862194,18.5092986" id="Fill-120" fill-opacity="0.2" fill="#FFFFFF"></path>
                        <path d="M224.242751,33.5184702 L224.242751,35.2560716 C226.587544,35.053802 228.771956,34.7132988 230.818762,34.2552684 L230.818762,32.4797055 C228.710271,32.9695623 226.521304,33.3146668 224.242751,33.5184702" id="Fill-122" fill-opacity="0.7" fill="#FFFFFF"></path>
                        <path d="M472.028559,16.5063885 C468.812962,13.8195579 465.465834,11.1879441 461.607574,8.96451223 L461.607574,10.9580661 C464.897003,12.9498945 467.852383,15.2657377 470.682305,17.6218431 C471.13403,17.250664 471.582338,16.8785262 472.028559,16.5063885 Z" id="Fill-124" fill-opacity="0.2" fill="#FFFFFF"></path>
                        <path d="M437.467082,4.59615979 C438.295371,4.59615979 439.109045,4.61686606 439.914747,4.64984271 L439.914747,2.91895172 C439.116637,2.88731714 438.301445,2.87063708 437.467082,2.87063708 C436.08135,2.87063708 434.747814,2.91607585 433.460968,3.00177681 L433.460968,4.7349685 C434.766983,4.64466615 436.100141,4.59615979 437.467082,4.59615979" id="Fill-126" fill-opacity="0.2" fill="#FFFFFF"></path>
                        <path d="M369.579919,33.5364923 L369.579919,35.2729433 C371.924332,35.0796848 374.108364,34.7474258 376.15593,34.2989816 L376.15593,32.527445 C374.047439,33.0071403 371.858092,33.3415083 369.579919,33.5364923" id="Fill-128" fill-opacity="0.2" fill="#FFFFFF"></path>
                        <path d="M449.337744,5.9107205 L449.337744,4.13324039 C447.291127,3.66524029 445.107095,3.31457573 442.761733,3.10310334 L442.761733,4.84032125 C445.040475,5.05351916 447.228872,5.40974374 449.337744,5.9107205" id="Fill-130" fill-opacity="0.2" fill="#FFFFFF"></path>
                        <path d="M430.613868,5.00934578 L430.613868,3.26675958 C428.26433,3.54878668 426.080868,3.97422389 424.038047,4.51872216 L424.038047,6.31096507 C426.146349,5.7269715 428.334556,5.29348185 430.613868,5.00934578" id="Fill-132" fill-opacity="0.2" fill="#FFFFFF"></path>
                        <path d="M458.686148,9.3277731 C458.711202,9.34061866 458.735496,9.35423112 458.76074,9.36707668 L458.76074,7.45174648 C456.729687,6.46206335 454.552678,5.59182473 452.184729,4.88301835 L452.184729,6.68964062 C454.437279,7.39077801 456.601002,8.26619319 458.686148,9.3277731" id="Fill-134" fill-opacity="0.2" fill="#FFFFFF"></path>
                        <path d="M416.247997,9.3277731 C417.848204,8.51313466 419.494152,7.80720415 421.190967,7.20518846 L421.190967,5.38092751 C418.82093,6.18885558 416.645819,7.16070831 414.614956,8.24912969 L414.614956,10.207598 C415.150762,9.90563148 415.693021,9.61037538 416.247997,9.3277731" id="Fill-136" fill-opacity="0.2" fill="#FFFFFF"></path>
                        <path d="M52.4037864,29.0120376 C51.9359287,28.7739155 51.477561,28.5258236 51.0231791,28.2737056 L51.0231791,30.2256552 C53.0538525,31.2975883 55.2297231,32.2519941 57.5993798,33.0434338 L57.5993798,31.2205149 C55.8135488,30.5999019 54.0829497,29.8669382 52.4037864,29.0120376" id="Fill-138" fill="#F9CA4D"></path>
                        <path d="M94.8412921,29.0120376 C92.8341539,30.0339305 90.7548917,30.8849966 88.5930663,31.5727133 L88.5930663,33.3810611 C90.9615842,32.6563415 93.1380242,31.7696146 95.1690772,30.7640183 L95.1690772,28.8394853 C95.0593726,28.8966193 94.9517559,28.9558623 94.8412921,29.0120376" id="Fill-140" fill="#F9CA4D"></path>
                        <path d="M79.1699939,33.4766359 L79.1699939,35.2134703 C81.5161154,34.9908779 83.7001474,34.6283264 85.7460049,34.1480559 L85.7460049,32.3684668 C83.6371337,32.8826726 81.4491159,33.2523179 79.1699939,33.4766359" id="Fill-142" fill="#F9CA4D"></path>
                        <path d="M60.4462894,32.0975214 L60.4462894,33.8876554 C62.490059,34.4194998 64.6729522,34.8332418 67.0223003,35.1037654 L67.0223003,33.3602206 C64.7431783,33.0877797 62.5545911,32.6677108 60.4462894,32.0975214" id="Fill-144" fill="#F9CA4D"></path>
                        <path d="M109.457414,18.5092027 C105.890877,21.5355778 102.225454,24.6438194 98.0160627,27.2273103 L98.0160627,29.2273828 C102.718365,26.4797755 106.666021,23.1313029 110.556168,19.8303779 C110.981321,19.4697437 111.408372,19.1077674 111.837131,18.745791 C111.387304,18.3746119 110.939945,18.0026659 110.494294,17.6303365 C110.147908,17.9234836 109.802471,18.216439 109.457414,18.5092027" id="Fill-146" fill="#F9CA4D"></path>
                        <path d="M37.787683,18.5092027 C37.4426261,18.216439 37.0971895,17.9234836 36.750804,17.6303365 C36.3051529,18.0026659 35.8577936,18.3746119 35.4079669,18.745791 C35.8367258,19.1077674 36.2637764,19.4697437 36.6889291,19.8303779 C40.2852652,22.8820607 43.9307595,25.9741974 48.1762126,28.5948829 L48.1762126,26.5626006 C44.4029826,24.1198356 41.0535768,21.2803922 37.787683,18.5092027" id="Fill-148" fill="#F9CA4D"></path>
                        <path d="M73.6224918,33.7435551 C72.3434276,33.7435551 71.0949212,33.6996501 69.8693807,33.6206595 L69.8693807,35.3536595 C71.0782188,35.4288156 72.3271048,35.4690778 73.6224918,35.4690778 C74.5453009,35.4690778 75.4443849,35.4483715 76.3229705,35.4098348 L76.3229705,33.6804776 C75.4358439,33.7207398 74.5371395,33.7435551 73.6224918,33.7435551" id="Fill-150" fill="#F9CA4D"></path>
                        <path d="M266.430688,11.8106085 L266.430688,9.77621728 C263.134616,11.8161686 260.199545,14.1396807 257.367155,16.5065227 C257.813375,16.8786604 258.261683,17.2506065 258.713408,17.6217856 C261.148546,15.5944881 263.677255,13.5976749 266.430688,11.8106085" id="Fill-152" fill-opacity="0.2" fill="#FFFFFF"></path>
                        <path d="M285.2767,4.98557191 L285.2767,3.24221881 C282.927352,3.51504312 280.744269,3.93108582 278.700689,4.46561441 L278.700689,6.2561318 C280.808991,5.68325826 282.997388,5.26031347 285.2767,4.98557191" id="Fill-154" fill-opacity="0.2" fill="#FFFFFF"></path>
                        <path d="M291.928062,4.59615979 C292.825248,4.59615979 293.70687,4.61859158 294.577484,4.65731998 L294.577484,2.92738761 C293.715221,2.89019301 292.83303,2.87063708 291.928062,2.87063708 C290.614454,2.87063708 289.348486,2.91204963 288.123705,2.9893147 L288.123705,4.72231467 C289.365568,4.64102338 290.631156,4.59615979 291.928062,4.59615979" id="Fill-156" fill-opacity="0.2" fill="#FFFFFF"></path>
                        <path d="M270.709356,9.3277731 C272.372387,8.48111663 274.085904,7.75371295 275.853704,7.13674272 L275.853704,5.31324868 C273.483857,6.10794774 271.308366,7.06599629 269.277693,8.14138038 L269.277693,10.0946721 C269.748587,9.83258436 270.223847,9.5749063 270.709356,9.3277731" id="Fill-158" fill-opacity="0.2" fill="#FFFFFF"></path>
                        <path d="M34.0688878,17.6218814 C34.5206125,17.2507023 34.9689208,16.8785646 35.4151413,16.5064269 C32.3603055,13.9538036 29.186465,11.4514122 25.5686815,9.3010275 L25.5686815,11.3131787 C28.6288317,13.2231406 31.4050406,15.4040096 34.0688878,17.6218814" id="Fill-160" fill="#F8CA4D"></path>
                        <path d="M179.606143,17.6218431 C180.057868,17.250664 180.506176,16.8785262 180.952397,16.5065802 C177.923564,13.9756219 174.777434,11.4941285 171.1978,9.35620588 L171.1978,11.3708495 C174.221509,13.2668155 176.968868,15.426403 179.606143,17.6218431" id="Fill-162" fill="#F8CA4D"></path>
                        <path d="M22.0728067,9.3277731 C22.2914567,9.43916518 22.5061208,9.5547752 22.7217339,9.66923487 L22.7217339,7.73664945 C20.6910605,6.71092206 18.5144307,5.80406402 16.1455332,5.05940511 L16.1455332,6.87024533 C18.1925294,7.53955641 20.1651239,8.35649555 22.0728067,9.3277731" id="Fill-164" fill="#F8CA4D"></path>
                        <path d="M13.2986236,6.0479379 L13.2986236,4.26796537 C11.2533356,3.7723569 9.06968318,3.39427571 6.72261269,3.15730392 L6.72261269,4.89337148 C9.00192447,5.13206879 11.1897525,5.51686035 13.2986236,6.0479379" id="Fill-166" fill="#F8CA4D"></path>
                        <path d="M304.000386,5.9589201 L304.000386,4.17971447 C301.954339,3.70212813 299.770306,3.34187733 297.424565,3.1215856 L297.424565,4.85842006 C299.703497,5.08062904 301.891515,5.44739848 304.000386,5.9589201" id="Fill-168" fill-opacity="0.2" fill="#FFFFFF"></path>
                        <path d="M130.780871,6.97856981 L130.780871,5.15967716 C128.411404,5.92485061 126.235913,6.85318182 124.20486,7.89923203 L124.20486,9.83699403 C124.524294,9.66405831 124.846195,9.49380673 125.172272,9.3277731 C126.980499,8.40711088 128.848324,7.62774979 130.780871,6.97856981 Z" id="Fill-170" fill="#F8CA4D"></path>
                        <path d="M158.927723,6.0699479 L158.927723,4.29074227 C156.882625,3.79053241 154.698973,3.40823327 152.351713,3.16704354 L152.351713,4.90406973 C154.630455,5.1471767 156.819232,5.53426896 158.927723,6.0699479" id="Fill-172" fill="#F8CA4D"></path>
                        <path d="M167.609872,9.3277731 C167.85965,9.45488661 168.105061,9.58660151 168.350853,9.71774123 L168.350853,7.78266339 C166.320179,6.75118426 164.14355,5.8387662 161.774652,5.08816383 L161.774652,6.90168818 C163.788433,7.56524753 165.730849,8.37125835 167.609872,9.3277731" id="Fill-174" fill="#F8CA4D"></path>
                        <path d="M140.204038,4.9308345 L140.204038,3.19112417 C137.856208,3.44247531 135.672366,3.83531931 133.628027,4.3466492 L133.628027,6.12988105 C135.736329,5.58212346 137.925296,5.18410289 140.204038,4.9308345" id="Fill-176" fill="#F8CA4D"></path>
                        <path d="M146.390996,4.59615979 C147.447804,4.59615979 148.484683,4.62472677 149.50467,4.67860143 L149.50467,2.94962768 C148.495692,2.89824545 147.459192,2.87063708 146.390996,2.87063708 C145.243084,2.87063708 144.130664,2.90131304 143.05108,2.96055599 L143.05108,4.69298078 C144.14414,4.63067024 145.255611,4.59615979 146.390996,4.59615979" id="Fill-178" fill="#F8CA4D"></path>
                        <path d="M121.357912,11.5123807 L121.357912,9.49217707 C117.87185,11.5990403 114.794618,14.0291514 111.829937,16.5066186 C112.276158,16.8785646 112.724466,17.2507023 113.176191,17.6218814 C115.747605,15.4810829 118.42303,13.374028 121.357912,11.5123807" id="Fill-180" fill="#F8CA4D"></path>
                        <path d="M313.147147,9.3277731 C313.240339,9.37512912 313.330873,9.42516927 313.423496,9.47329218 L313.423496,7.55010127 C311.392443,6.54757258 309.215813,5.66429668 306.847485,4.94302819 L306.847485,6.75118426 C309.027721,7.44177679 311.124065,8.29782778 313.147147,9.3277731" id="Fill-182" fill-opacity="0.2" fill="#FFFFFF"></path>
                        <path d="M325.143361,17.6219006 C325.595085,17.2507215 326.043394,16.8785838 326.489614,16.5066378 C323.330388,13.8667797 320.043617,11.2807964 316.270576,9.08228874 L316.270576,11.0802523 C319.47934,13.0442806 322.371327,15.3141098 325.143361,17.6219006" id="Fill-184" fill-opacity="0.2" fill="#FFFFFF"></path>
                        <path d="M6.72261269,3.1572464 C5.79961384,3.06406818 4.85061234,2.99332175 3.87560821,2.94519884 L3.87560821,4.67283051 C4.84036313,4.72210377 5.78917482,4.79553435 6.72261269,4.89331397 L6.72261269,3.1572464 Z" id="Fill-186" fill="#F8CA4D"></path>
                        <path d="M16.1456281,6.87024533 L16.1456281,5.05940511 C15.2264253,4.7702842 14.2785626,4.50551233 13.2986236,4.26796537 L13.2986236,6.0479379 C14.2639479,6.29104487 15.2125698,6.56521126 16.1456281,6.87024533" id="Fill-188" fill="#F8CA4D"></path>
                        <path d="M25.5687384,11.3132746 L25.5687384,9.30112336 C24.6502948,8.75509129 23.7028117,8.23225791 22.7217339,7.73664945 L22.7217339,9.66923487 C23.6997749,10.1884255 24.647258,10.7381003 25.5687384,11.3132746" id="Fill-190" fill="#F8CA4D"></path>
                        <path d="M48.1761936,26.5626965 L48.1761936,28.5949788 C49.0953964,29.1622923 50.0421203,29.7077492 51.0231981,30.2255977 L51.0231981,28.2738398 C50.0457265,27.7314505 49.0978638,27.1593439 48.1761936,26.5626965" id="Fill-192" fill="#F9CA4D"></path>
                        <path d="M57.5992849,31.2205149 L57.5992849,33.0434338 C58.5181082,33.3503851 59.4661606,33.6326039 60.4462894,33.8875979 L60.4462894,32.0974639 C59.4811549,31.8365265 58.5321534,31.5447215 57.5992849,31.2205149" id="Fill-194" fill="#F8C958"></path>
                        <path d="M67.0223003,33.3601823 L67.0223003,35.1037271 C67.9449196,35.2099426 68.8941109,35.2931511 69.8693048,35.3537362 L69.8693048,33.6207362 C68.9045499,33.5584256 67.9557382,33.4717661 67.0223003,33.3601823" id="Fill-196" fill="#F8C958"></path>
                        <path d="M76.3229894,33.6804584 L76.3229894,35.4100074 C77.2981834,35.367061 78.2466155,35.3011077 79.1699939,35.2134895 L79.1699939,33.476655 C78.2363663,33.5684912 77.2877444,33.6365535 76.3229894,33.6804584" id="Fill-198" fill="#F8C958"></path>
                        <path d="M85.7460808,32.3685435 L85.7460808,34.1481326 C86.7254503,33.9182546 87.6740722,33.6621104 88.5930852,33.3810419 L88.5930852,31.5728858 C87.6604066,31.869484 86.7110255,32.1332973 85.7460808,32.3685435" id="Fill-200" fill="#F8C958"></path>
                        <path d="M95.1690962,28.8395045 L95.1690962,30.7638458 C96.1505535,30.2780153 97.0974672,29.7640012 98.0161007,29.2273637 L98.0161007,27.2272911 C97.0951896,27.7924957 96.1467575,28.3310505 95.1690962,28.8395045" id="Fill-202" fill="#F9CA4D"></path>
                        <path d="M124.204917,9.83689816 L124.204917,7.89913617 C123.224029,8.40433087 122.276546,8.93694221 121.357912,9.49217707 L121.357912,11.5123807 C122.279772,10.9276202 123.226686,10.3662502 124.204917,9.83689816" id="Fill-204" fill="#F8CA4D"></path>
                        <path d="M133.627932,6.12995774 L133.627932,4.34672589 C132.648183,4.59175012 131.699561,4.86304063 130.780928,5.15983053 L130.780928,6.97872319 C131.714176,6.66506151 132.662228,6.38092543 133.627932,6.12995774" id="Fill-206" fill="#F8CA4D"></path>
                        <path d="M143.051042,4.69292326 L143.051042,2.9606902 C142.075089,3.0141814 141.127416,3.09221337 140.204038,3.19114334 L140.204038,4.93085367 C141.137476,4.82713059 142.086287,4.74775654 143.051042,4.69292326" id="Fill-208" fill="#F8CA4D"></path>
                        <path d="M152.351713,4.90416559 L152.351713,3.16694768 C151.428524,3.07223565 150.479902,2.99938025 149.504708,2.94972354 L149.504708,4.67869729 C150.469463,4.72969607 151.418275,4.80466045 152.351713,4.90416559" id="Fill-210" fill="#F8CA4D"></path>
                        <path d="M161.774728,6.90159232 L161.774728,5.08825969 C160.855715,4.7970298 159.907473,4.53034068 158.927723,4.29068475 L158.927723,6.06989038 C159.893427,6.31529805 160.84129,6.59406583 161.774728,6.90159232" id="Fill-212" fill="#F8CA4D"></path>
                        <path d="M171.197838,11.3707728 L171.197838,9.35612919 C170.279015,8.80741297 169.332101,8.28112855 168.350834,7.78264421 L168.350834,9.71772206 C169.328875,10.2397885 170.276358,10.7929144 171.197838,11.3707728" id="Fill-214" fill="#F8CA4D"></path>
                        <path d="M193.248951,26.2579883 L193.248951,28.30465 C194.168343,28.885576 195.115067,29.4452205 196.095955,29.9772567 L196.095955,28.0134201 C195.118484,27.4560763 194.17119,26.8684399 193.248951,26.2579883" id="Fill-216" fill="#FFFFFF"></path>
                        <path d="M202.671966,31.0589677 L202.671966,32.8849541 C203.590979,33.2036007 204.538273,33.498665 205.518971,33.7651624 L205.518971,31.971194 C204.553836,31.6985614 203.604645,31.3956363 202.671966,31.0589677" id="Fill-218" fill="#FFFFFF"></path>
                        <path d="M212.095076,33.3054065 L212.095076,35.0474175 C213.018075,35.1620689 213.965938,35.2552471 214.942081,35.3240763 L214.942081,33.5912681 C213.977326,33.5209051 213.028325,33.4258096 212.095076,33.3054065" id="Fill-220" fill-opacity="0.7" fill="#FFFFFF"></path>
                        <path d="M221.395747,33.6977328 L221.395747,35.4280487 C222.370371,35.392963 223.319373,35.3354456 224.242751,35.2558798 L224.242751,33.5184702 C223.309123,33.6020622 222.360312,33.6616886 221.395747,33.6977328" id="Fill-222" fill-opacity="0.7" fill="#FFFFFF"></path>
                        <path d="M230.818857,32.4796097 L230.818857,34.2553643 C231.798606,34.0362229 232.746279,33.7896649 233.665861,33.519333 L233.665861,31.7148197 C232.732803,31.9999144 231.784181,32.2552917 230.818857,32.4796097" id="Fill-224" fill-opacity="0.7" fill="#FFFFFF"></path>
                        <path d="M240.378642,29.0120376 C240.33328,29.0350446 240.287159,29.0561343 240.241796,29.0789495 L240.241796,30.9902535 C241.223254,30.5182272 242.170547,30.0185925 243.088801,29.4953757 L243.088801,27.5069984 C242.210026,28.0332828 241.309423,28.538094 240.378642,29.0120376" id="Fill-226" fill-opacity="0.6" fill="#FFFFFF"></path>
                        <path d="M269.277693,10.0946721 L269.277693,8.14138038 C268.296805,8.66076272 267.349701,9.20756169 266.430688,9.77621728 L266.430688,11.8106085 C267.352359,11.2124273 268.300221,10.6387869 269.277693,10.0946721" id="Fill-228" fill-opacity="0.2" fill="#FFFFFF"></path>
                        <path d="M278.700613,6.25618931 L278.700613,4.46567192 C277.720674,4.72181618 276.772242,5.00499363 275.853609,5.31328702 L275.853609,7.13678107 C276.786477,6.81123245 277.735479,6.51846877 278.700613,6.25618931" id="Fill-230" fill-opacity="0.2" fill="#FFFFFF"></path>
                        <path d="M288.123705,4.72223798 L288.123705,2.98923801 C287.148321,3.05078165 286.199319,3.13514054 285.2767,3.24231467 L285.2767,4.98566778 C286.210138,4.87312535 287.15895,4.78531542 288.123705,4.72223798" id="Fill-232" fill-opacity="0.2" fill="#FFFFFF"></path>
                        <path d="M297.424489,4.85847758 L297.424489,3.12164312 C296.50092,3.03479181 295.552868,2.96922195 294.577484,2.92723423 L294.577484,4.65735832 C295.542239,4.70030467 296.490861,4.76740833 297.424489,4.85847758" id="Fill-234" fill-opacity="0.2" fill="#FFFFFF"></path>
                        <path d="M306.84739,6.75126095 L306.84739,4.94291316 C305.928377,4.66299503 304.979755,4.40838457 304.000386,4.17984868 L304.000386,5.95886258 C304.96533,6.19295849 305.914712,6.45581312 306.84739,6.75126095" id="Fill-236" fill-opacity="0.2" fill="#FFFFFF"></path>
                        <path d="M316.270501,11.0802906 L316.270501,9.08232709 C315.351867,8.5470316 314.404953,8.03455136 313.423496,7.55006293 L313.423496,9.47325384 C314.401157,9.97998234 315.349779,10.5166199 316.270501,11.0802906" id="Fill-238" fill-opacity="0.2" fill="#FFFFFF"></path>
                        <path d="M338.586119,26.1267719 L338.586119,28.1784184 C339.505322,28.7649044 340.452805,29.3293421 341.433123,29.86713 L341.433123,27.9013762 C340.455652,27.3375137 339.508738,26.743167 338.586119,26.1267719" id="Fill-240" fill-opacity="0.2" fill="#FFFFFF"></path>
                        <path d="M348.009229,30.9837157 L348.009229,32.8156456 C348.927673,33.1390853 349.875915,33.4377924 350.856234,33.7090829 L350.856234,31.91684 C349.89034,31.6390309 348.942667,31.3259444 348.009229,30.9837157" id="Fill-242" fill-opacity="0.2" fill="#FFFFFF"></path>
                        <path d="M357.43232,33.2804439 L357.43232,35.0232219 C358.35456,35.1413243 359.303751,35.2364198 360.279325,35.3087 L360.279325,33.5781925 C359.31438,33.5041867 358.365758,33.4046816 357.43232,33.2804439" id="Fill-244" fill-opacity="0.2" fill="#FFFFFF"></path>
                        <path d="M366.732915,33.7051909 L366.732915,35.4349316 C367.707349,35.4029135 368.656541,35.3492306 369.579919,35.2729242 L369.579919,33.5364732 C368.646481,33.6164224 367.69748,33.672406 366.732915,33.7051909" id="Fill-246" fill-opacity="0.2" fill="#FFFFFF"></path>
                        <path d="M376.156025,32.5275025 L376.156025,34.2990392 C377.135205,34.0844992 378.083827,33.8442681 379.003029,33.578921 L379.003029,31.7759415 C378.069781,32.0560514 377.121729,32.307786 376.156025,32.5275025" id="Fill-248" fill-opacity="0.2" fill="#FFFFFF"></path>
                        <path d="M385.916467,29.0120376 C385.804865,29.0689798 385.691174,29.1213207 385.579192,29.1771126 L385.579192,31.0868828 C386.56065,30.6209917 387.507753,30.1267253 388.426197,29.6092602 L388.426197,27.6260594 C387.610625,28.1090141 386.776642,28.5741383 385.916467,29.0120376" id="Fill-250" fill-opacity="0.2" fill="#FFFFFF"></path>
                        <path d="M414.614861,10.2075213 L414.614861,8.249053 C413.634352,8.7743788 412.686869,9.32654607 411.767856,9.9009534 L411.767856,11.9426302 C412.689906,11.3385055 413.637389,10.7581547 414.614861,10.2075213" id="Fill-252" fill-opacity="0.2" fill="#FFFFFF"></path>
                        <path d="M424.037971,6.31092673 L424.037971,4.51868382 C423.057842,4.77981292 422.1096,5.06778349 421.190967,5.38086999 L421.190967,7.20532266 C422.123455,6.87440575 423.073216,6.57819102 424.037971,6.31092673" id="Fill-254" fill-opacity="0.2" fill="#FFFFFF"></path>
                        <path d="M433.460873,4.7349685 L433.460873,3.00177681 C432.484919,3.0667715 431.536677,3.1559235 430.613868,3.26674041 L430.613868,5.00932661 C431.547306,4.89294969 432.496118,4.80168871 433.460873,4.7349685" id="Fill-256" fill-opacity="0.2" fill="#FFFFFF"></path>
                        <path d="M442.761657,4.84032125 L442.761657,3.10310334 C441.837899,3.0198948 440.890036,2.95758426 439.914652,2.91885586 L439.914652,4.64993858 C440.879407,4.68943387 441.828029,4.75289476 442.761657,4.84032125" id="Fill-258" fill-opacity="0.2" fill="#FFFFFF"></path>
                        <path d="M452.184748,6.68964062 L452.184748,4.88301835 C451.265545,4.60789334 450.317303,4.35711737 449.337744,4.13318287 L449.337744,5.91066298 C450.302878,6.13996577 451.25188,6.39936935 452.184748,6.68964062" id="Fill-260" fill-opacity="0.2" fill="#FFFFFF"></path>
                        <path d="M461.607668,10.9580853 L461.607668,8.9645314 C460.689604,8.43537111 459.741742,7.92979296 458.760664,7.45163144 L458.760664,9.36696164 C459.739085,9.86755495 460.686378,10.4001663 461.607668,10.9580853" id="Fill-262" fill-opacity="0.2" fill="#FFFFFF"></path>
                        <path d="M483.65899,25.8099084 L483.65899,27.8774681 C484.578762,28.4773748 485.525866,29.0560001 486.505994,29.6081673 L486.505994,27.6249666 C485.529282,27.046533 484.581609,26.4395325 483.65899,25.8099084" id="Fill-264" fill-opacity="0.200000003" fill="#FFFFFF"></path>
                        <path d="M493.081891,30.8083259 L493.081891,32.6479248 C494.000715,32.9834431 494.948008,33.2949958 495.928896,33.5781733 L495.928896,31.7753855 C494.963571,31.4856894 494.01495,31.1632084 493.081891,30.8083259" id="Fill-266" fill-opacity="0.200000003" fill="#FFFFFF"></path>
                        <path d="M502.505002,33.2120557 L502.505002,34.9600102 C503.427621,35.086932 504.375484,35.1921889 505.352006,35.272905 L505.352006,33.5362623 C504.387061,33.4536289 503.43825,33.3454961 502.505002,33.2120557" id="Fill-268" fill-opacity="0.200000003" fill="#FFFFFF"></path>
                        <path d="M297.424489,30.2200569 L297.424489,31.9566996 C299.77042,31.739092 301.954263,31.3834426 304.00031,30.9117998 L304.00031,29.1339362 C301.891628,29.6387474 299.703421,30.0009155 297.424489,30.2200569" id="Fill-270" fill-opacity="0.2" fill="#FFFFFF"></path>
                        <path d="M313.151038,25.8070134 C311.126818,26.8244966 309.029145,27.6700027 306.84739,28.3519676 L306.84739,30.1582065 C309.215908,29.4457573 311.392538,28.5734097 313.423591,27.5835349 L313.423591,25.6655205 C313.332297,25.7121096 313.242901,25.7608077 313.151038,25.8070134" id="Fill-272" fill-opacity="0.2" fill="#FFFFFF"></path>
                        <path d="M67.0223003,2.10385314 L67.0223003,0.360691762 C64.6729522,0.627764331 62.490059,1.03632976 60.4462894,1.56165556 L60.4462894,3.35006398 C62.5547809,2.78735185 64.7431783,2.37265123 67.0223003,2.10385314" id="Fill-274" fill="#FEFEFE"></path>
                        <path d="M316.270501,24.0792092 L316.270501,26.0704624 C320.040694,23.9012886 323.325378,21.3501991 326.482516,18.7458102 C326.038573,18.3707966 325.592732,17.9959747 325.143285,17.6219198 C322.371251,19.9001849 319.479454,22.1406803 316.270501,24.0792092" id="Fill-276" fill-opacity="0.2" fill="#FFFFFF"></path>
                        <path d="M167.613858,25.8070134 C165.733696,26.7520247 163.789952,27.5482575 161.774652,28.2035727 L161.774652,30.0146046 C164.14355,29.2735885 166.320179,28.3724822 168.350853,27.3538486 L168.350853,25.4241391 C168.10639,25.5527864 167.862307,25.6822006 167.613858,25.8070134" id="Fill-278" fill="#FFFFFF"></path>
                        <path d="M22.0766976,25.8070134 C20.1676862,26.766404 18.1937631,27.5735652 16.1456281,28.2346321 L16.1456281,30.0431716 C18.5143358,29.3077155 20.6909656,28.4123609 22.721639,27.3992874 L22.721639,25.4718785 C22.5073545,25.5842292 22.2942088,25.6977303 22.0766976,25.8070134" id="Fill-280" fill="#F8CA4D"></path>
                        <path d="M6.72261269,30.185719 L6.72261269,31.9214031 C9.06968318,31.6874989 11.2533356,31.3142108 13.2986236,30.8245458 L13.2986236,29.0461071 C11.1897525,29.5702825 9.00192447,29.9500893 6.72261269,30.185719" id="Fill-282" fill="#F8CA4D"></path>
                        <path d="M278.700613,28.840559 L278.700613,30.6295426 C280.744383,31.1571691 282.927276,31.5682269 285.276624,31.8376002 L285.276624,30.0946305 C282.997502,29.8235318 280.809105,29.406147 278.700613,28.840559" id="Fill-284" fill-opacity="0.2" fill="#FFFFFF"></path>
                        <path d="M461.607668,24.1997082 L461.607668,26.1869351 C465.462892,23.9928372 468.808122,21.3966924 472.021441,18.7457144 C471.577688,18.3708925 471.131658,17.9958789 470.6824,17.6218239 C467.852478,19.9476368 464.897097,22.2337626 461.607668,24.1997082" id="Fill-286" fill-opacity="0.2" fill="#FFFFFF"></path>
                        <path d="M25.5687384,23.8492162 L25.5687384,25.8544653 C29.1836749,23.7328392 32.3554277,21.2639997 35.4079859,18.7456952 C34.9642328,18.3708733 34.5182021,17.9960514 34.0689448,17.6218047 C31.4050976,19.8111096 28.6288886,21.9639867 25.5687384,23.8492162" id="Fill-288" fill="#F8CA4D"></path>
                        <path d="M458.690039,25.8070134 C456.603754,26.855556 454.438702,27.7204263 452.184824,28.4127444 L452.184824,30.2172577 C454.552772,29.5172706 456.729782,28.6581521 458.760645,27.6807393 L458.760645,25.770394 C458.73692,25.7822809 458.713764,25.7951265 458.690039,25.8070134" id="Fill-290" fill-opacity="0.2" fill="#FFFFFF"></path>
                        <path d="M291.928062,30.4790003 C290.631156,30.4790003 289.365568,30.4347119 288.123705,30.354571 L288.123705,32.0873792 C289.348486,32.1636856 290.614454,32.204523 291.928062,32.204523 C292.83303,32.204523 293.715221,32.1851588 294.577484,32.1485394 L294.577484,30.418607 C293.70687,30.456952 292.825248,30.4790003 291.928062,30.4790003" id="Fill-292" fill-opacity="0.2" fill="#FFFFFF"></path>
                        <path d="M404.251708,17.6219389 C403.80245,17.9959939 403.35642,18.3708158 402.912666,18.7458294 C405.685269,21.0331056 408.555999,23.2795444 411.767799,25.2619783 L411.767799,23.2279705 C409.092374,21.4972712 406.627248,19.574272 404.251708,17.6219389" id="Fill-294" fill-opacity="0.2" fill="#FFFFFF"></path>
                        <path d="M52.3998006,6.39741376 C54.0801027,5.55286626 55.8120304,4.8287219 57.5993798,4.21577789 L57.5993798,2.39515972 C55.2297231,3.1768215 53.0538525,4.11914862 51.0231791,5.17785266 L51.0231791,7.12405054 C51.4762324,6.87595872 51.9332715,6.63189312 52.3998006,6.39741376" id="Fill-296" fill="#FEFEFE"></path>
                        <path d="M385.579116,6.23254965 L385.579116,4.32718914 C383.547873,3.37508406 381.370484,2.54127315 379.003105,1.86640204 L379.003105,3.6674643 C381.283176,4.34271885 383.470435,5.19646913 385.579116,6.23254965" id="Fill-298" fill-opacity="0.2" fill="#FFFFFF"></path>
                        <path d="M152.351713,30.1750016 L152.351713,31.911836 C154.698973,31.6737139 156.882625,31.2960161 158.927723,30.8021332 L158.927723,29.0244614 C156.819232,29.5532382 154.630455,29.9351539 152.351713,30.1750016" id="Fill-300" fill="#FFFFFF"></path>
                        <path d="M0.854101342,30.4790003 C0.382447601,30.4790003 0,30.8653257 0,31.3417617 C0,31.8181977 0.382447601,32.204523 0.854101342,32.204523 C1.88984157,32.204523 2.89559335,32.1786402 3.87553229,32.1309007 L3.87553229,30.403269 C2.88534414,30.4533092 1.87883315,30.4790003 0.854101342,30.4790003" id="Fill-302" fill="#F8CA4D"></path>
                        <path d="M416.244107,25.8070134 C415.690459,25.5288208 415.149528,25.2377826 414.614861,24.9406093 L414.614861,26.8933258 C416.645914,27.967943 418.820835,28.9277171 421.190872,29.7254837 L421.190872,27.9039069 C419.492728,27.3093685 417.845641,26.6118739 416.244107,25.8070134" id="Fill-304" fill-opacity="0.2" fill="#FFFFFF"></path>
                        <path d="M376.156025,2.92570043 L376.156025,1.15531414 C374.108459,0.712429979 371.924427,0.384580665 369.580014,0.19362282 L369.580014,1.92988211 C371.857997,2.12237375 374.047533,2.45233204 376.156025,2.92570043" id="Fill-306" fill-opacity="0.2" fill="#FFFFFF"></path>
                        <path d="M442.761657,30.2380023 L442.761657,31.9750285 C445.107019,31.7662402 447.291241,31.4197936 449.337668,30.957737 L449.337668,29.181599 C447.228986,29.6760571 445.040399,30.0276803 442.761657,30.2380023" id="Fill-308" fill-opacity="0.2" fill="#FFFFFF"></path>
                        <path d="M146.390996,30.4790003 C145.255611,30.4790003 144.14414,30.4448733 143.05108,30.3835214 L143.05108,32.1157545 C144.130664,32.1742305 145.243084,32.204523 146.390996,32.204523 C147.459192,32.204523 148.495692,32.1772981 149.50467,32.126491 L149.50467,30.3975173 C148.484683,30.4508168 147.447804,30.4790003 146.390996,30.4790003" id="Fill-310" fill="#FFFFFF"></path>
                        <path d="M400.537202,16.7663673 C400.88074,17.0541461 401.224848,17.3423084 401.569715,17.6304707 C402.013089,17.2552654 402.458171,16.8804435 402.90553,16.5065802 C402.47791,16.1499722 402.051618,15.7933642 401.627415,15.4380982 C397.556388,12.0276985 393.422348,8.56572476 388.426045,5.78629114 L388.426045,7.7633567 C392.918238,10.3888354 396.782952,13.621698 400.537202,16.7663673" id="Fill-312" fill-opacity="0.2" fill="#FFFFFF"></path>
                        <path d="M424.037971,28.786531 L424.037971,30.5770483 C426.080982,31.1146445 428.264254,31.5347134 430.613792,31.8134812 L430.613792,30.0710867 C428.33448,29.7907852 426.146463,29.3628555 424.037971,28.786531" id="Fill-314" fill-opacity="0.2" fill="#FFFFFF"></path>
                        <path d="M437.467082,30.4790003 C436.100141,30.4790003 434.766983,30.4310691 433.460968,30.3419171 L433.460968,32.0749171 C434.747814,32.1596594 436.08135,32.204523 437.467082,32.204523 C438.301445,32.204523 439.116637,32.1880347 439.914747,32.1567836 L439.914747,30.4260843 C439.109045,30.4586775 438.295181,30.4790003 437.467082,30.4790003" id="Fill-316" fill-opacity="0.2" fill="#FFFFFF"></path>
                        <path d="M37.7835074,16.7662714 C41.0507298,14.0294007 44.4012744,11.2252346 48.1762126,8.81295382 L48.1762126,6.78795707 C43.9326575,9.3745156 40.288302,12.4263901 36.6931047,15.4380024 C36.268901,15.79346 35.8427994,16.1498763 35.4149895,16.5064844 C35.8625386,16.8803476 36.3074305,17.2553612 36.750804,17.6303748 C37.0958609,17.3422125 37.4399689,17.0540502 37.7835074,16.7662714" id="Fill-318" fill="#FEFEFE"></path>
                        <path d="M183.320763,16.7662714 C186.453037,14.1423265 189.66275,11.4570298 193.249027,9.11376994 L193.249027,7.07458556 C189.202674,9.5984501 185.693646,12.5368235 182.23036,15.4380024 C181.806157,15.79346 181.380055,16.1498763 180.952245,16.5064844 C181.399794,16.8803476 181.844686,17.2553612 182.288059,17.6303748 C182.633116,17.3422125 182.977224,17.0540502 183.320763,16.7662714" id="Fill-320" fill="#F8CA4D"></path>
                        <path d="M258.713427,17.6218814 C258.26417,17.9959364 257.818139,18.3707583 257.374196,18.7457719 C260.204498,21.0805958 263.137482,23.3726651 266.430707,25.3851998 L266.430707,23.3582858 C263.677085,21.5942264 261.148375,19.6231043 258.713427,17.6218814" id="Fill-322" fill-opacity="0.2" fill="#FFFFFF"></path>
                        <g id="Group-326" transform="translate(69.846510, 0.000000)">
                            <mask id="mask-4" fill="white">
                                <use xlink:href="#path-3"></use>
                            </mask>
                            <g id="Clip-325"></g>
                            <path d="M3.77598204,1.72542684 C4.69062967,1.72542684 5.58933409,1.74785863 6.47646068,1.78773738 L6.47646068,0.0583801847 C5.5978751,0.0202269606 4.69879109,-9.58623723e-05 3.77598204,-9.58623723e-05 C2.480595,-9.58623723e-05 1.23170904,0.0397828845 0.0228709359,0.113788636 L0.0228709359,1.8467886 C1.24841146,1.76875663 2.49691782,1.72542684 3.77598204,1.72542684" id="Fill-324" fill="#FEFEFE" mask="url(#mask-4)"></path>
                        </g>
                        <path d="M109.461571,16.7662714 C109.80511,17.0540502 110.149218,17.3422125 110.494275,17.6303748 C110.937648,17.2553612 111.38254,16.8803476 111.829899,16.5064844 C111.402279,16.1498763 110.976177,15.79346 110.551974,15.4381941 C106.662966,12.1804072 102.716448,8.87545609 98.0160437,6.16350957 L98.0160437,8.15706347 C102.227333,10.7081529 105.893895,13.7776661 109.461571,16.7662714" id="Fill-327" fill="#FEFEFE"></path>
                        <path d="M502.505002,2.25006243 L502.505002,0.502683108 C500.153186,0.822479982 497.969724,1.28530352 495.928991,1.86718812 L495.928991,3.66805864 C498.037103,3.04341942 500.2255,2.57177655 502.505002,2.25006243" id="Fill-329" fill-opacity="0.200000003" fill="#FFFFFF"></path>
                        <path d="M230.818857,2.97297975 L230.818857,1.19856724 C228.771861,0.746288568 226.587449,0.410003366 224.242846,0.210417907 L224.242846,1.94763582 C226.521209,2.14875508 228.710176,2.48925822 230.818857,2.97297975" id="Fill-331" fill-opacity="0.7" fill="#FFFFFF"></path>
                        <path d="M133.627932,28.9651992 L133.627932,30.7468973 C135.672461,31.2519003 137.856113,31.6397594 140.203943,31.888043 L140.203943,30.1487161 C137.925201,29.898707 135.736234,29.505863 133.627932,28.9651992" id="Fill-333" fill="#FFFFFF"></path>
                        <path d="M270.705447,25.8070134 C270.221266,25.5637147 269.747335,25.3100629 269.277769,25.0520013 L269.277769,26.999733 C271.308442,28.0615047 273.483933,29.0076663 275.85359,29.7923957 L275.85359,27.971394 C274.084461,27.3620928 272.369805,26.6435085 270.705447,25.8070134" id="Fill-335" fill-opacity="0.2" fill="#FFFFFF"></path>
                        <path d="M125.168286,25.8070134 C124.843538,25.6438556 124.522965,25.4762882 124.20486,25.3064201 L124.20486,27.2388138 C126.235913,28.271635 128.411404,29.1884627 130.780871,29.9438582 L130.780871,28.127458 C128.846806,27.4863304 126.977652,26.7165556 125.168286,25.8070134" id="Fill-337" fill="#FFFFFF"></path>
                        <path d="M85.7460808,3.08262713 L85.7460808,1.30438013 C83.7000336,0.830244834 81.5161913,0.472103011 79.1700698,0.252386454 L79.1700698,1.98883747 C81.4491918,2.21047127 83.6372097,2.57513174 85.7460808,3.08262713" id="Fill-339" fill="#FEFEFE"></path>
                        <g id="Group-343" opacity="0.2" transform="translate(505.248394, 0.000000)">
                            <mask id="mask-6" fill="white">
                                <use xlink:href="#path-5"></use>
                            </mask>
                            <g id="Clip-342"></g>
                            <path d="M4.98819858,1.72542684 C5.45985232,1.72542684 5.84229992,1.33910148 5.84229992,0.862665488 C5.84229992,0.386229498 5.45985232,-9.58623723e-05 4.98819858,-9.58623723e-05 C3.2847409,-9.58623723e-05 1.65910135,0.0670077983 0.103687903,0.193737854 L0.103687903,1.92999714 C1.68795099,1.79598155 3.31321095,1.72542684 4.98819858,1.72542684" id="Fill-341" fill="#FFFFFF" mask="url(#mask-6)"></path>
                        </g>
                        <g id="Group-346" transform="translate(360.240966, 0.000000)">
                            <mask id="mask-8" fill="white">
                                <use xlink:href="#path-7"></use>
                            </mask>
                            <g id="Clip-345"></g>
                            <path d="M4.4564161,1.72542684 C5.14368298,1.72542684 5.82032105,1.74076482 6.4920243,1.76338834 L6.4920243,0.0336476927 C5.82544566,0.0121745213 5.14804839,-9.58623723e-05 4.4564161,-9.58623723e-05 C2.92226029,-9.58623723e-05 1.45206718,0.0549291393 0.0384345604,0.158268777 L0.0384345604,1.8885846 C1.47446362,1.77968494 2.94617513,1.72542684 4.4564161,1.72542684" id="Fill-344" fill-opacity="0.2" fill="#FFFFFF" mask="url(#mask-8)"></path>
                        </g>
                        <path d="M254.998827,16.7662714 C255.342365,17.0540502 255.686473,17.3422125 256.03153,17.6303748 C256.474903,17.2553612 256.919795,16.8803476 257.367155,16.5064844 C256.939535,16.1498763 256.513243,15.79346 256.089229,15.4380024 C252.072865,12.0736166 247.995006,8.65880712 243.088858,5.8987377 L243.088858,7.88097984 C247.495641,10.4849853 251.300758,13.6685747 254.998827,16.7662714" id="Fill-347" fill-opacity="0.5" fill="#FFFFFF"></path>
                        <path d="M343.474596,6.39741376 C344.945928,5.65793142 346.456739,5.01124386 348.009305,4.44949036 L348.009305,2.62024457 C345.638889,3.44466097 343.464347,4.43108478 341.433104,5.53158481 L341.433104,7.4917786 C342.099113,7.11273878 342.778978,6.7471197 343.474596,6.39741376" id="Fill-349" fill-opacity="0.2" fill="#FFFFFF"></path>
                        <path d="M328.857923,16.7662714 C331.932309,14.1910246 335.079957,11.5553846 338.586138,9.24337587 L338.586138,7.19920664 C334.623867,9.69488764 331.173867,12.5847547 327.767711,15.4380024 C327.343507,15.79346 326.917215,16.1498763 326.489595,16.5066761 C326.936955,16.8805393 327.381847,17.2553612 327.82522,17.6303748 C328.170087,17.3422125 328.514385,17.0540502 328.857923,16.7662714" id="Fill-351" fill-opacity="0.2" fill="#FFFFFF"></path>
                        <path d="M474.396944,16.7662714 C477.334104,14.3058678 480.339591,11.7917812 483.659009,9.55607893 L483.659009,7.49638 C479.891093,9.92284837 476.578509,12.6971054 473.306541,15.4380024 C472.882338,15.7932683 472.456236,16.1498763 472.028426,16.5064844 C472.475975,16.8803476 472.920867,17.2551695 473.364241,17.6303748 C473.709298,17.3422125 474.053405,17.0540502 474.396944,16.7662714" id="Fill-353" fill-opacity="0.200000003" fill="#FFFFFF"></path>
                        <path d="M493.081986,4.6226178 L493.081986,2.78589475 C490.71157,3.64060366 488.537218,4.65731998 486.505975,5.78753735 L486.505975,7.76460292 C487.320978,7.28816693 488.154011,6.82936961 489.013617,6.39741376 C490.336905,5.73232062 491.693217,5.14391738 493.081986,4.6226178 Z" id="Fill-355" fill-opacity="0.200000003" fill="#FFFFFF"></path>
                        <path d="M94.845183,6.39741376 C94.9543182,6.45224704 95.0606063,6.51014791 95.1691721,6.56574809 L95.1691721,4.64619994 C93.1381191,3.65325749 90.9616791,2.77745886 88.5931612,2.06194211 L88.5931612,3.86798921 C90.7563152,4.54726998 92.8367162,5.38798298 94.845183,6.39741376" id="Fill-357" fill="#FEFEFE"></path>
                        <path d="M240.241853,6.32938982 L240.241853,4.42268724 C238.2108,3.45831177 236.033601,2.61223047 233.665842,1.92528071 L233.665842,3.72787676 C235.945534,4.41520997 238.133552,5.27950512 240.241853,6.32938982" id="Fill-359" fill-opacity="0.7" fill="#FFFFFF"></path>
                        <g id="Group-363" transform="translate(214.853938, 0.000000)">
                            <mask id="mask-10" fill="white">
                                <use xlink:href="#path-9"></use>
                            </mask>
                            <g id="Clip-362"></g>
                            <path d="M4.30618917,1.72542684 C5.06197396,1.72542684 5.80504212,1.74344897 6.54184688,1.77067388 L6.54184688,0.0405497835 C5.81111573,0.0144752182 5.06709856,-9.58623723e-05 4.30618917,-9.58623723e-05 C2.84453707,-9.58623723e-05 1.44020466,0.049177397 0.0880673384,0.143122522 L0.0880673384,1.87573904 C1.4612725,1.77661735 2.8656049,1.72542684 4.30618917,1.72542684" id="Fill-361" fill-opacity="0.7" fill="#FFFFFF" mask="url(#mask-10)"></path>
                        </g>
                        <path d="M197.937341,6.39741376 C199.472066,5.62610511 201.048737,4.95334298 202.671909,4.37510116 L202.671909,2.55160711 C200.302253,3.36298623 198.126761,4.33522241 196.095898,5.42306861 L196.095898,7.38115343 C196.698514,7.04199235 197.31062,6.71241752 197.937341,6.39741376" id="Fill-364" fill="#F8CA4D"></path>
                        <path d="M357.43232,2.1825178 L357.43232,0.440315049 C355.081074,0.738063577 352.89875,1.17941394 350.856309,1.73790812 L350.856309,3.52842551 C352.964611,2.92986086 355.152819,2.48199185 357.43232,2.1825178" id="Fill-366" fill-opacity="0.2" fill="#FFFFFF"></path>
                        <path d="M113.176172,17.6219006 C112.726914,17.9959556 112.280884,18.3707774 111.837131,18.745791 C114.799723,21.1898981 117.874678,23.5872243 121.357893,25.665904 L121.357893,23.6526024 C118.423011,21.8151125 115.747586,19.7352825 113.176172,17.6219006" id="Fill-368" fill="#FFFFFF"></path>
                        <path d="M171.197838,23.7924656 L171.197838,25.8000154 C174.774435,23.6906598 177.918667,21.2425265 180.945412,18.7456952 C180.501469,18.3708733 180.055439,17.9958597 179.606181,17.6218047 C176.969096,19.789253 174.221737,21.9208487 171.197838,23.7924656" id="Fill-370" fill="#FFFFFF"></path>
                        <path d="M212.095076,2.15793869 L212.095076,0.416311111 C209.745159,0.704665126 207.561317,1.134512 205.519066,1.68265305 L205.519066,3.47489596 C207.627557,2.88687617 209.815385,2.44820995 212.095076,2.15793869" id="Fill-372" fill-opacity="0.7" fill="#FFFFFF"></path>
                        <path d="M3.87560821,30.4033457 L3.87560821,32.1307857 C4.85061234,32.0832379 5.79961384,32.0134501 6.72261269,31.9214223 L6.72261269,30.1857381 C5.78917482,30.2821757 4.84036313,30.3546476 3.87560821,30.4033457" id="Fill-374" fill="#F8CA4D"></path>
                        <path d="M13.2986236,29.0460879 L13.2986236,30.8245266 C14.2785626,30.5900473 15.2264253,30.3285347 16.1456281,30.0432483 L16.1456281,28.2345171 C15.2125698,28.5357166 14.2639479,28.8062403 13.2986236,29.0460879" id="Fill-376" fill="#F8CA4D"></path>
                        <path d="M22.7217339,25.4718402 L22.7217339,27.3994408 C23.7028117,26.9099675 24.6502948,26.3936528 25.5687384,25.8545228 L25.5687384,23.8492737 C24.6474478,24.4167789 23.6997749,24.9595517 22.7217339,25.4718402" id="Fill-378" fill="#F8CA4D"></path>
                        <path d="M51.0231981,7.12408889 L51.0231981,5.17769928 C50.0421203,5.6892209 49.0953964,6.22777571 48.1761936,6.78799541 L48.1761936,8.81299216 C49.0978638,8.22401375 50.0457265,7.65938438 51.0231981,7.12408889" id="Fill-380" fill="#FEFEFE"></path>
                        <path d="M60.4462894,3.3501215 L60.4462894,1.56171308 C59.4661606,1.81344767 58.5181082,2.09221545 57.5992849,2.39514054 L57.5992849,4.21575872 C58.5321534,3.89577012 59.4811549,3.60779955 60.4462894,3.3501215" id="Fill-382" fill="#FEFEFE"></path>
                        <path d="M69.8693048,1.84669274 L69.8693048,0.113884498 C68.8939211,0.173702619 67.9449196,0.255952534 67.0223003,0.360825969 L67.0223003,2.10379562 C67.9557382,1.99374562 68.9045499,1.90804466 69.8693048,1.84669274" id="Fill-384" fill="#FEFEFE"></path>
                        <path d="M79.1699939,1.98891416 L79.1699939,0.252271419 C78.2466155,0.165803559 77.2981834,0.100617146 76.3229894,0.0582459774 L76.3229894,1.7877949 C77.2877444,1.83112469 78.2363663,1.89822835 79.1699939,1.98891416" id="Fill-386" fill="#FEFEFE"></path>
                        <path d="M88.5930852,3.8680659 L88.5930852,2.06182708 C87.6740722,1.78420965 86.7254503,1.53132471 85.7460808,1.30432261 L85.7460808,3.08256962 C86.7110255,3.31494001 87.6604066,3.57530221 88.5930852,3.8680659" id="Fill-388" fill="#FEFEFE"></path>
                        <path d="M98.0161007,8.15698678 L98.0161007,6.16362461 C97.0974672,5.63369741 96.1505535,5.12601029 95.1690962,4.64631498 L95.1690962,6.5656714 C96.1467575,7.06760678 97.0951896,7.59906777 98.0161007,8.15698678" id="Fill-390" fill="#FEFEFE"></path>
                        <path d="M121.357912,23.65266 L121.357912,25.6657698 C122.276546,26.2141025 123.224029,26.7400035 124.204917,27.2388713 L124.204917,25.3064776 C123.226686,24.7838359 122.279772,24.2299432 121.357912,23.65266" id="Fill-392" fill="#FFFFFF"></path>
                        <path d="M130.780928,28.1275347 L130.780928,29.9439349 C131.699561,30.2368903 132.648183,30.5049215 133.627932,30.7468781 L133.627932,28.9651801 C132.662228,28.7174717 131.714365,28.4369784 130.780928,28.1275347" id="Fill-394" fill="#FFFFFF"></path>
                        <path d="M140.204038,30.1486777 L140.204038,31.8880046 C141.127416,31.9857843 142.075089,32.0628576 143.051042,32.1155819 L143.051042,30.3835406 C142.086287,30.3292825 141.137476,30.2510588 140.204038,30.1486777" id="Fill-396" fill="#FFFFFF"></path>
                        <path d="M149.504708,30.397594 L149.504708,32.126376 C150.479902,32.0772945 151.428524,32.0053977 152.351713,31.911836 L152.351713,30.1750016 C151.418275,30.2731646 150.469463,30.3473621 149.504708,30.397594" id="Fill-398" fill="#FFFFFF"></path>
                        <path d="M158.927723,29.0243655 L158.927723,30.8020373 C159.907473,30.565449 160.855715,30.3022109 161.774728,30.0146238 L161.774728,28.2035919 C160.84129,28.5072839 159.893427,28.7822171 158.927723,29.0243655" id="Fill-400" fill="#FFFFFF"></path>
                        <path d="M168.350834,25.4240816 L168.350834,27.3537911 C169.332101,26.8616337 170.279015,26.3418679 171.197838,25.8000538 L171.197838,23.792504 C170.276358,24.3628851 169.328875,24.9087254 168.350834,25.4240816" id="Fill-402" fill="#FFFFFF"></path>
                        <path d="M196.095955,7.38115343 L196.095955,5.42306861 C195.115067,5.94839441 194.168533,6.50094512 193.248951,7.07458556 L193.248951,9.11376994 C194.17119,8.51117907 195.118484,7.93140344 196.095955,7.38115343" id="Fill-404" fill="#F8CA4D"></path>
                        <path d="M205.518971,3.47483844 L205.518971,1.68259553 C204.538273,1.94583361 203.590979,2.23706349 202.671966,2.5516838 L202.671966,4.37517785 C203.604645,4.04291886 204.553836,3.74382826 205.518971,3.47483844" id="Fill-406" fill="#F8CA4D"></path>
                        <path d="M214.942081,1.87566235 L214.942081,0.143237557 C213.965938,0.211108116 213.018075,0.303135994 212.095076,0.416253593 L212.095076,2.15788117 C213.028325,2.03901183 213.977326,1.94525843 214.942081,1.87566235" id="Fill-408" fill-opacity="0.7" fill="#FFFFFF"></path>
                        <path d="M224.242751,1.94759747 L224.242751,0.210379562 C223.319373,0.131772417 222.370371,0.0752136173 221.395747,0.0405114385 L221.395747,1.77063553 C222.360312,1.80629634 223.309313,1.86515583 224.242751,1.94759747" id="Fill-410" fill-opacity="0.7" fill="#FFFFFF"></path>
                        <path d="M233.665861,3.72789593 L233.665861,1.92529989 C232.746279,1.65841904 231.798606,1.41492862 230.818857,1.19847138 L230.818857,2.97288389 C231.784181,3.19432597 232.732803,3.44644401 233.665861,3.72789593" id="Fill-412" fill-opacity="0.7" fill="#FFFFFF"></path>
                        <path d="M240.382628,6.39741376 C241.31208,6.86464696 242.211354,7.3623644 243.088801,7.88097984 L243.088801,5.8987377 C242.170547,5.38223124 241.223254,4.88873175 240.241796,4.42284062 L240.241796,6.32935148 C240.288487,6.35255017 240.335937,6.37402334 240.382628,6.39741376" id="Fill-414" fill-opacity="0.6" fill="#FFFFFF"></path>
                        <path d="M266.430688,23.3583241 L266.430688,25.3852381 C267.349701,25.9469916 268.296805,26.4868885 269.277693,26.9997522 L269.277693,25.0520205 C268.300221,24.5149995 267.352359,23.9488363 266.430688,23.3583241" id="Fill-416" fill-opacity="0.2" fill="#FFFFFF"></path>
                        <path d="M275.853609,27.9714707 L275.853609,29.7924723 C276.772242,30.0967395 277.720674,30.3762742 278.700613,30.6295426 L278.700613,28.840559 C277.735479,28.5817306 276.786477,28.2928014 275.853609,27.9714707" id="Fill-418" fill-opacity="0.2" fill="#FFFFFF"></path>
                        <path d="M285.2767,30.0946305 L285.2767,31.8376002 C286.199319,31.9432405 287.148321,32.0266408 288.123705,32.0874175 L288.123705,30.3546093 C287.15895,30.2922988 286.210138,30.2056392 285.2767,30.0946305" id="Fill-420" fill-opacity="0.2" fill="#FFFFFF"></path>
                        <path d="M294.577484,30.4185687 L294.577484,32.148501 C295.552868,32.1070885 296.50092,32.0422855 297.424489,31.9567763 L297.424489,30.2201336 C296.490861,30.3098607 295.542239,30.3761975 294.577484,30.4185687" id="Fill-422" fill-opacity="0.2" fill="#FFFFFF"></path>
                        <path d="M304.000386,29.1339554 L304.000386,30.9118189 C304.979755,30.6859672 305.928567,30.4344243 306.84739,30.158149 L306.84739,28.3519101 C305.914712,28.6435235 304.96533,28.902927 304.000386,29.1339554" id="Fill-424" fill-opacity="0.2" fill="#FFFFFF"></path>
                        <path d="M313.423496,25.6654247 L313.423496,27.5836307 C314.404953,27.1052775 315.351867,26.5991242 316.270501,26.0705391 L316.270501,24.0792859 C315.349779,24.6354793 314.401157,25.1652148 313.423496,25.6654247" id="Fill-426" fill-opacity="0.2" fill="#FFFFFF"></path>
                        <path d="M341.433123,7.49181695 L341.433123,5.53162316 C340.452805,6.06289243 339.505322,6.62023626 338.586119,7.19924499 L338.586119,9.24322249 C339.508738,8.63487988 340.455652,8.04839388 341.433123,7.49181695" id="Fill-428" fill-opacity="0.2" fill="#FFFFFF"></path>
                        <path d="M350.856234,3.5285022 L350.856234,1.73779309 C349.875915,2.00582428 348.927673,2.30069694 348.009229,2.62030208 L348.009229,4.44935615 C348.942667,4.11153715 349.89034,3.80266859 350.856234,3.5285022" id="Fill-430" fill-opacity="0.2" fill="#FFFFFF"></path>
                        <path d="M360.279325,1.88852708 L360.279325,0.158402984 C359.303751,0.229724589 358.35456,0.323477989 357.43232,0.440238359 L357.43232,2.18244111 C358.365758,2.059929 359.31438,1.96157421 360.279325,1.88852708" id="Fill-432" fill-opacity="0.2" fill="#FFFFFF"></path>
                        <path d="M369.579919,1.92980542 L369.579919,0.19354613 C368.656541,0.11839003 367.707349,0.0650905508 366.732915,0.0336476927 L366.732915,1.76338834 C367.69748,1.7955981 368.646481,1.85100655 369.579919,1.92980542" id="Fill-434" fill-opacity="0.2" fill="#FFFFFF"></path>
                        <path d="M379.003029,3.66744512 L379.003029,1.8665746 C378.083827,1.60448687 377.135205,1.36713164 376.156025,1.15527579 L376.156025,2.92566209 C377.121729,3.14250277 378.069781,3.39097804 379.003029,3.66744512" id="Fill-436" fill-opacity="0.2" fill="#FFFFFF"></path>
                        <path d="M385.920548,6.39750962 C386.779394,6.82908202 387.611858,7.28749589 388.426102,7.7633567 L388.426102,5.78629114 C387.507848,5.27553642 386.560744,4.78740522 385.579097,4.32726583 L385.579097,6.23262634 C385.692598,6.28822652 385.807617,6.3407591 385.920548,6.39750962" id="Fill-438" fill-opacity="0.2" fill="#FFFFFF"></path>
                        <path d="M411.767856,23.2279705 L411.767856,25.2619783 C412.686869,25.8292918 413.634352,26.374557 414.614861,26.8933641 L414.614861,24.9406476 C413.637389,24.397108 412.689906,23.8244262 411.767856,23.2279705" id="Fill-440" fill-opacity="0.2" fill="#FFFFFF"></path>
                        <path d="M421.190967,27.9038302 L421.190967,29.725407 C422.1096,30.034659 423.057842,30.3191786 424.037971,30.5770483 L424.037971,28.786531 C423.073216,28.5227177 422.123455,28.2303375 421.190967,27.9038302" id="Fill-442" fill-opacity="0.2" fill="#FFFFFF"></path>
                        <path d="M430.613868,30.0711634 L430.613868,31.8133662 C431.536677,31.922841 432.484919,32.0108427 433.460873,32.0748787 L433.460873,30.3418788 C432.496118,30.2761172 431.547306,30.1860066 430.613868,30.0711634" id="Fill-444" fill-opacity="0.2" fill="#FFFFFF"></path>
                        <path d="M439.914652,30.4259884 L439.914652,32.1568794 C440.890036,32.1187262 441.837899,32.0571825 442.761657,31.9749326 L442.761657,30.2379064 C441.828029,30.3241826 440.879407,30.3868766 439.914652,30.4259884" id="Fill-446" fill-opacity="0.2" fill="#FFFFFF"></path>
                        <path d="M449.337744,29.1815223 L449.337744,30.9576603 C450.317303,30.73641 451.265545,30.4888933 452.184748,30.2172193 L452.184748,28.412706 C451.25188,28.6993345 450.302878,28.9552871 449.337744,29.1815223" id="Fill-448" fill-opacity="0.2" fill="#FFFFFF"></path>
                        <path d="M458.760664,25.7703173 L458.760664,27.6806626 C459.741742,27.2084446 460.689604,26.7093851 461.607668,26.1869351 L461.607668,24.1997082 C460.686378,24.7503416 459.739085,25.2762426 458.760664,25.7703173" id="Fill-450" fill-opacity="0.2" fill="#FFFFFF"></path>
                        <path d="M486.505994,7.7645454 L486.505994,5.78747983 C485.525866,6.33274501 484.578762,6.90408474 483.65899,7.49632248 L483.65899,9.55602141 C484.581609,8.93464151 485.529282,8.33550169 486.505994,7.7645454" id="Fill-452" fill-opacity="0.200000003" fill="#FFFFFF"></path>
                        <path d="M495.928896,3.66805864 L495.928896,1.86718812 C494.948008,2.14672279 494.000715,2.45444101 493.081891,2.78593309 L493.081891,4.62265615 C494.01495,4.27237504 494.963571,3.95411196 495.928896,3.66805864" id="Fill-454" fill-opacity="0.200000003" fill="#FFFFFF"></path>
                        <path d="M505.352006,1.92999714 L505.352006,0.193737854 C504.375484,0.273303623 503.427621,0.377218435 502.505002,0.502798143 L502.505002,2.24998574 C503.43825,2.11827084 504.387061,2.01148016 505.352006,1.92999714" id="Fill-456" fill-opacity="0.200000003" fill="#FFFFFF"></path>
                        <path d="M180.952302,16.5065035 C180.506081,16.8786413 180.057773,17.2505873 179.606048,17.6217664 C180.055495,17.9960131 180.501336,18.370835 180.945279,18.7456568 C181.395106,18.3746695 181.842465,18.0027235 182.288116,17.630394 C181.844743,17.2553804 181.399661,16.8803668 180.952302,16.5065035" id="Fill-458" fill="#FFFFFF"></path>
                        <path d="M111.829956,16.5065419 C111.382597,16.8804051 110.937515,17.255227 110.494331,17.6304323 C110.939983,18.0025701 111.387152,18.3747078 111.836979,18.7456952 C112.280922,18.3708733 112.726763,17.9960514 113.17621,17.6218047 C112.724485,17.2506256 112.276177,16.8786796 111.829956,16.5065419" id="Fill-460" fill="#FEFEFE"></path>
                        <path d="M257.367212,16.5065419 C256.919852,16.8804051 256.474771,17.2554187 256.031587,17.6304323 C256.477238,18.0025701 256.924408,18.3747078 257.374234,18.7456952 C257.818177,18.3708733 258.264018,17.9960514 258.713465,17.6218047 C258.26174,17.2506256 257.813432,16.8786796 257.367212,16.5065419" id="Fill-462" fill-opacity="0.4" fill="#FFFFFF"></path>
                        <path d="M326.489557,16.5065802 C326.043337,16.878718 325.595029,17.250664 325.143304,17.6218431 C325.592751,17.9958981 326.038592,18.3709117 326.482535,18.7457335 C326.932361,18.3747461 327.379531,18.0026084 327.825182,17.6304707 C327.381998,17.2552654 326.936917,16.8804435 326.489557,16.5065802" id="Fill-464" fill-opacity="0.2" fill="#FFFFFF"></path>
                        <path d="M402.905492,16.5065994 C402.458133,16.8804627 402.013051,17.2552845 401.569867,17.6304899 C402.015518,18.0026276 402.462688,18.3747653 402.912515,18.7457527 C403.356458,18.3709308 403.802298,17.9959172 404.251746,17.6218622 C403.800021,17.2506831 403.351713,16.8787371 402.905492,16.5065994" id="Fill-466" fill-opacity="0.2" fill="#FFFFFF"></path>
                        <path d="M472.028521,16.5064844 C471.582301,16.8786221 471.133992,17.2505681 470.682267,17.6219389 C471.131715,17.9959939 471.577555,18.3708158 472.021498,18.7458294 C472.471325,18.3746503 472.918684,18.0027043 473.364336,17.6303748 C472.920962,17.2553612 472.47588,16.8803476 472.028521,16.5064844" id="Fill-468" fill-opacity="0.200000003" fill="#FFFFFF"></path>
                        <path d="M35.4150844,16.5065035 C34.9688639,16.8786413 34.5205556,17.2505873 34.0688309,17.6219581 C34.518278,17.9960131 34.9641189,18.370835 35.4080618,18.7458486 C35.8578885,18.3746695 36.3052478,18.0027235 36.7508989,17.630394 C36.3075254,17.2553804 35.8624437,16.8803668 35.4150844,16.5065035" id="Fill-470" fill="#000000"></path>
                        <path d="M37.8120154,17.3737129 C37.8120154,18.7305489 36.7231311,19.8304738 35.3799144,19.8304738 C34.0368875,19.8304738 32.9480032,18.7305489 32.9480032,17.3737129 C32.9480032,16.0168769 34.0368875,14.916952 35.3799144,14.916952 C36.7231311,14.916952 37.8120154,16.0168769 37.8120154,17.3737129" id="Fill-472" fill="#59D8E6"></path>
                        <path d="M113.968303,17.3737129 C113.968303,18.7305489 112.879419,19.8304738 111.536202,19.8304738 C110.193175,19.8304738 109.104291,18.7305489 109.104291,17.3737129 C109.104291,16.0168769 110.193175,14.916952 111.536202,14.916952 C112.879419,14.916952 113.968303,16.0168769 113.968303,17.3737129" id="Fill-474" fill="#59D8E6"></path>
                        <path d="M183.864012,17.4567609 C183.864012,18.8135969 182.775128,19.9135218 181.431911,19.9135218 C180.088884,19.9135218 179,18.8135969 179,17.4567609 C179,16.0999249 180.088884,15 181.431911,15 C182.775128,15 183.864012,16.0999249 183.864012,17.4567609" id="Fill-474-Copy" fill="#59D8E6"></path>
                    </g>
                </g>
            </g>
        </g>
    </g>
</svg>