<?xml version="1.0" encoding="UTF-8" standalone="no"?>
<svg width="96px" height="227px" viewBox="0 0 96 227" version="1.1" xmlns="http://www.w3.org/2000/svg" xmlns:xlink="http://www.w3.org/1999/xlink">
    <!-- Generator: Sketch 3.8.2 (29753) - http://www.bohemiancoding.com/sketch -->
    <title>Shape</title>
    <desc>Created with Sketch.</desc>
    <defs></defs>
    <g id="Page-1" stroke="none" stroke-width="1" fill="none" fill-rule="evenodd" opacity="0.328358209">
        <g id="Volet-d'informations-supplémentaires" transform="translate(-76.000000, -610.000000)" fill="#FFFFFF">
            <g id="Group-9" transform="translate(76.000000, 594.000000)">
                <g id="standing-human-body-silhouette" transform="translate(0.000000, 16.000000)">
                    <g id="Capa_1">
                        <path d="M49.38,129.356005 C49.0483636,133.281899 51.6992727,154.06172 53.0672727,162.209594 C53.7185455,166.069691 55.5043636,172.358797 54.8618182,175.698 C53.9443636,180.352048 53.6792727,186.374676 54.1843636,189.881662 C54.5029091,192.011295 55.5054545,201.833705 54.0709091,205.426227 C53.3203636,207.310217 51.9447273,216.964845 51.9447273,216.964845 C48.3610909,226.060198 50.3836364,225.612778 50.3836364,225.612778 C51.4930909,226.981357 53.3934545,225.720246 53.3934545,225.720246 C54.8410909,226.647986 55.8436364,225.499826 55.8436364,225.499826 C57.0861818,226.533937 58.5349091,225.372618 58.5349091,225.372618 C60.096,226.187406 61.5436364,224.685039 61.5436364,224.685039 C62.4403636,225.139039 62.6596364,224.565507 62.6596364,224.565507 C65.3498182,224.392242 61.1585455,215.737729 61.1585455,215.737729 C60.1549091,207.964899 62.1545455,203.638739 62.1545455,203.638739 C68.7043636,184.113449 69.0370909,178.931928 66.4189091,171.573618 C65.6814545,169.449469 65.4949091,168.608362 65.8341818,167.686106 C66.6185455,165.55757 66.0469091,156.996271 67.0036364,153.596754 C68.8494545,147.040072 70.6701818,130.412048 71.6192727,122.653473 C72.8945455,112.2027 67.1018182,98.1901111 67.1018182,98.1901111 C65.8330909,92.4876957 67.6930909,72.1706473 67.6930909,72.1706473 C70.2905455,76.2336184 70.1912727,83.4055024 70.1912727,83.4055024 C69.7789091,90.9272077 76.236,102.423058 76.236,102.423058 C79.3385455,107.173609 80.5134545,111.68071 80.5134545,112.015179 C80.5134545,113.383758 80.2156364,116.696643 80.2156364,116.696643 L80.3345455,119.581845 C80.388,120.31658 80.7992727,122.846478 80.7327273,124.069208 C80.2483636,131.594203 81.4374545,130.178469 81.4374545,130.178469 C82.4410909,130.178469 83.544,124.122942 83.544,124.122942 C83.544,125.684527 83.1643636,130.359411 84.0021818,132.122773 C85.0047273,134.226087 85.7421818,131.761986 85.7552727,131.267411 C86.0203636,121.686256 86.5930909,124.196415 86.5930909,124.196415 C87.1505455,131.969246 87.8356364,133.724932 89.064,133.117406 C89.9945455,132.671082 89.1436364,123.78957 89.1436364,123.78957 C90.7374545,129.065401 91.9461818,129.905411 91.9461818,129.905411 C94.5763636,131.761986 92.9498182,126.634198 92.5843636,125.618729 C90.6381818,120.223367 90.5781818,118.353633 90.5781818,118.353633 C93.0098182,123.201783 94.8425455,123.021937 94.8425455,123.021937 C97.2141818,122.260884 92.7698182,115.396053 90.1658182,112.107295 C88.8370909,110.431662 87.1232727,108.187981 86.6258182,106.855589 C85.8152727,104.598749 85.2032727,97.3435217 85.2032727,97.3435217 C84.9578182,88.7822222 82.8523636,85.0635894 82.8523636,85.0635894 C79.2523636,79.2712512 78.5749091,68.4662705 78.5749091,68.4662705 L78.4156364,50.2240242 C77.1534545,37.7806957 68.0323636,37.6907729 68.0323636,37.6907729 C58.8130909,36.3112271 57.5301818,33.3174589 57.5301818,33.3174589 C55.5774545,30.49257 56.6934545,25.0774686 56.6934545,25.0774686 C58.3134545,23.7527536 58.9385455,20.2358986 58.9385455,20.2358986 C61.6287273,18.1621932 61.4967273,15.1278502 60.2541818,15.1607488 C59.2570909,15.1870676 59.4829091,14.3569275 59.4829091,14.3569275 C61.1650909,0.697449275 49.1018182,0 49.1018182,0 L47.2603636,0 C47.2603636,0 35.1916364,0.697449275 36.8716364,14.3536377 C36.8716364,14.3536377 37.0974545,15.1848744 36.0916364,15.1574589 C34.8523636,15.1245604 34.7367273,18.1589034 37.4170909,20.2326087 C37.4170909,20.2326087 38.0410909,23.7483671 39.6621818,25.0741787 C39.6621818,25.0741787 40.7781818,30.4892802 38.8254545,33.3141691 C38.8254545,33.3141691 37.5469091,36.3079372 28.3232727,37.6874831 C28.3232727,37.6874831 19.1869091,37.7774058 17.9443636,50.2207343 L17.772,68.4629807 C17.772,68.4629807 17.1076364,79.2679614 13.4934545,85.0602995 C13.4934545,85.0602995 11.3978182,88.780029 11.1556364,97.3402319 C11.1556364,97.3402319 10.5414545,104.595459 9.73418182,106.8523 C9.24218182,108.178111 7.52945455,110.421792 6.18981818,112.104005 C3.56290909,115.386184 -0.852,122.236758 1.50981818,123.018647 C1.50981818,123.018647 3.35236364,123.198493 5.77418182,118.350343 C5.77418182,118.350343 5.724,120.206918 3.78109091,125.61544 C3.39927273,126.617749 1.77490909,131.745536 4.40618182,129.902121 C4.40618182,129.902121 5.62472727,129.061014 7.20872727,123.78628 C7.20872727,123.78628 6.35890909,132.667792 7.30472727,133.114116 C8.54072727,133.722739 9.21490909,131.965957 9.77236364,124.193126 C9.77236364,124.193126 10.344,121.682966 10.6090909,131.264121 C10.6221818,131.758696 11.3432727,134.222797 12.3501818,132.119483 C13.2,130.356121 12.8181818,125.688913 12.8181818,124.119652 C12.8181818,124.119652 13.908,130.175179 14.9269091,130.175179 C14.9269091,130.175179 16.1258182,131.590913 15.6338182,124.065918 C15.5541818,122.836609 15.9829091,120.31329 16.0363636,119.578556 L16.152,116.693353 C16.152,116.693353 15.8530909,113.388145 15.8530909,112.011889 C15.8530909,111.670841 17.0290909,107.170319 20.1305455,102.419768 C20.1305455,102.419768 26.5810909,90.9184348 26.1654545,83.4022126 C26.1654545,83.4022126 26.076,76.2303285 28.6734545,72.1673575 C28.6734545,72.1673575 30.5170909,92.4833092 29.268,98.1868213 C29.268,98.1868213 23.4654545,112.199411 24.7450909,122.650184 C25.6876364,130.429594 27.5050909,147.035686 29.3552727,153.593464 C30.3218182,156.986401 29.7501818,165.545507 30.5247273,167.682816 C30.8738182,168.611652 30.6905455,169.467014 29.94,171.570329 C27.336,178.928638 27.6676364,184.111256 34.2174545,203.635449 C34.2174545,203.635449 36.2334545,207.961609 35.2145455,215.73444 C35.2145455,215.73444 31.0298182,224.388952 33.7101818,224.562217 C33.7101818,224.562217 33.9196364,225.135749 34.8261818,224.681749 C34.8261818,224.681749 36.2738182,226.184116 37.8381818,225.369329 C37.8381818,225.369329 39.2869091,226.531744 40.5250909,225.496536 C40.5250909,225.496536 41.5178182,226.644696 42.9654545,225.716957 C42.9654545,225.716957 44.8658182,227.005483 45.9949091,225.609488 C45.9949091,225.609488 48.0010909,226.056908 44.4294545,216.961556 C44.4294545,216.961556 43.0614545,207.31899 42.3076364,205.422937 C40.8698182,201.831512 41.8854545,191.988266 42.192,189.878372 C42.6861818,186.351647 42.4210909,180.343275 41.5178182,175.69471 C40.8567273,172.363184 42.6469091,166.072981 43.308,162.206304 C44.6661818,154.066106 47.328,133.285188 46.9952727,129.352715 L48.0949091,129.740918 C48.8825455,129.743111 49.38,129.356005 49.38,129.356005 L49.38,129.356005 Z" id="Shape"></path>
                    </g>
                </g>
            </g>
        </g>
    </g>
</svg>