<?xml version="1.0" encoding="UTF-8" standalone="no"?>
<svg width="17px" height="17px" viewBox="0 0 17 17" version="1.1" xmlns="http://www.w3.org/2000/svg" xmlns:xlink="http://www.w3.org/1999/xlink">
    <!-- Generator: Sketch 3.8.2 (29753) - http://www.bohemiancoding.com/sketch -->
    <title>Shape</title>
    <desc>Created with Sketch.</desc>
    <defs></defs>
    <g id="Page-1" stroke="none" stroke-width="1" fill="none" fill-rule="evenodd">
        <g id="Home-Page" transform="translate(-602.000000, -581.000000)" fill="#FFFFFF">
            <g id="Group-7" transform="translate(565.000000, 559.000000)">
                <g id="icon" transform="translate(37.000000, 22.000000)">
                    <g id="Group-6">
                        <g id="Capa_1">
                            <path d="M13.8125,0 L3.1875,0 C1.42669231,0 0,1.42669231 0,3.1875 L0,13.8125 C0,15.5733077 1.42669231,17 3.1875,17 L13.8125,17 C15.5733077,17 17,15.5733077 17,13.8125 L17,3.1875 C17,1.42669231 15.5733077,0 13.8125,0 L13.8125,0 Z M13.3803077,9.15515385 L11.7895,9.15515385 L11.7895,15.0423846 L9.13292308,15.0423846 L9.13292308,9.15515385 L8.10246154,9.15515385 L8.10246154,7.17203846 L9.13292308,7.17203846 L9.13292308,5.90880769 C9.13357692,4.25261538 9.82142308,3.26923077 11.7731538,3.26923077 L13.7510385,3.26923077 L13.7510385,5.24515385 L12.6022308,5.24515385 C11.8424615,5.24515385 11.7927692,5.52826923 11.7927692,6.05788462 L11.7895,7.17138462 L13.5967308,7.17138462 L13.3803077,9.15515385 L13.3803077,9.15515385 Z" id="Shape"></path>
                        </g>
                    </g>
                </g>
            </g>
        </g>
    </g>
</svg>