<?xml version="1.0" encoding="utf-8"?>
<!-- Generator: Adobe Illustrator 16.0.0, SVG Export Plug-In . SVG Version: 6.00 Build 0)  -->
<!DOCTYPE svg PUBLIC "-//W3C//DTD SVG 1.1//EN" "http://www.w3.org/Graphics/SVG/1.1/DTD/svg11.dtd">
<svg version="1.1" id="Calque_1" xmlns="http://www.w3.org/2000/svg" xmlns:xlink="http://www.w3.org/1999/xlink" x="0px" y="0px"
	 width="150px" height="150px" viewBox="0 0 150 150" enable-background="new 0 0 150 150" xml:space="preserve">
<rect y="0" fill="#EAC438" width="150" height="150"/>
<g id="_x38_fAiy6.tif">
	<g>
		<path fill-rule="evenodd" clip-rule="evenodd" d="M50.959,53.907c0.869,5.948,1.727,11.81,2.583,17.67
			c0.151,0.01,0.302,0.02,0.453,0.03c0.78-5.893,1.56-11.786,2.347-17.73c4.843,0,9.51,0,14.3,0c0,14.011,0,27.91,0,41.936
			c-3.136,0-6.164,0-9.503,0c0-8.388,0-16.763,0-25.139c-0.159-0.007-0.317-0.013-0.476-0.02
			c-1.127,8.308-2.253,16.616-3.405,25.106c-2.23,0-4.489,0-6.914,0c-1.241-8.459-2.48-16.894-3.718-25.328
			c-0.132,0.009-0.263,0.019-0.395,0.027c0,8.415,0,16.83,0,25.365c-3.224,0-6.243,0-9.413,0c0-13.971,0-27.869,0-41.919
			C41.505,53.907,46.154,53.907,50.959,53.907z"/>
		<path fill-rule="evenodd" clip-rule="evenodd" d="M74.495,95.518c0-13.797,0-27.635,0-42.11
			c6.322,0.408,12.552,0.545,18.704,1.306c3.643,0.451,5.828,3.186,5.889,6.855c0.153,9.301,0.131,18.608-0.034,27.91
			c-0.062,3.508-1.967,5.752-5.493,5.943C87.276,95.763,80.959,95.518,74.495,95.518z M85.655,61.116c0,9.263,0,18.358,0,27.489
			c1.983,0.055,3.034-0.691,3.043-2.579c0.034-7.438,0.064-14.876,0.085-22.313C88.789,61.724,87.762,60.878,85.655,61.116z"/>
		<path fill-rule="evenodd" clip-rule="evenodd" d="M113.756,53.918c0,4.347,0,8.581,0,13.225c2.968-2.495,6.087-3.187,9.531-2.342
			c2.676,0.656,4.557,2.273,4.59,5.046c0.09,7.147,0.219,14.319-0.278,21.439c-0.327,4.695-7.019,6.85-11.514,4.076
			c-0.754-0.465-1.432-1.054-2.314-1.712c-0.23,2.232-1.632,2.451-3.441,2.336c-2.296-0.146-4.608-0.035-7.072-0.035
			c0-14.064,0-27.968,0-42.033C106.68,53.918,110.072,53.918,113.756,53.918z M113.836,80.43c0.003,0,0.006,0,0.009,0
			c0,2.682-0.114,5.372,0.08,8.039c0.049,0.671,1.088,1.27,1.673,1.9c0.576-0.654,1.635-1.297,1.652-1.966
			c0.134-5.21,0.136-10.428-0.02-15.638c-0.021-0.711-1.04-1.828-1.767-1.988c-1.388-0.306-1.618,0.938-1.624,2.054
			C113.828,75.364,113.836,77.897,113.836,80.43z"/>
		<path fill-rule="evenodd" clip-rule="evenodd" d="M32.725,95.841c-3.622,0-7.093,0-10.687,0c0-14.026,0-27.932,0-41.964
			c3.574,0,7.046,0,10.687,0C32.725,67.828,32.725,81.729,32.725,95.841z"/>
	</g>
</g>
</svg>
