<svg id="Calque_1" data-name="Calque 1" xmlns="http://www.w3.org/2000/svg" viewBox="0 0 2890.71 507.49"><defs><style>.cls-1{fill:#59d8e6;}.cls-2{fill:#f8ca4d;}.cls-3{fill:#fff;}</style></defs><title>transhumania_logo</title><rect class="cls-1" x="75.85" y="162.19" width="63.46" height="63.46" rx="12" ry="12"/><rect class="cls-1" x="237.54" y="162.19" width="63.46" height="63.46" rx="12" ry="12"/><rect class="cls-2" x="318.38" y="243.04" width="63.46" height="63.46" rx="12" ry="12"/><rect class="cls-1" x="156.69" y="162.19" width="63.46" height="190.38" rx="12" ry="12"/><rect class="cls-2" x="399.23" y="162.19" width="63.46" height="190.38" rx="12" ry="12"/><rect class="cls-2" x="237.54" y="243.04" width="63.46" height="109.53" rx="12" ry="12"/><path class="cls-3" d="M686.14,162a11.25,11.25,0,0,1,11.28,11.13,11.51,11.51,0,0,1-11.28,11.28H624.47q-5.57,0-5.57,5.57V341.29a11,11,0,0,1-11.28,11.28,11.07,11.07,0,0,1-7.91-3.22,11.24,11.24,0,0,1-3.22-8.06V190q0-5.56-5.57-5.57H529.26A11,11,0,0,1,521.2,181a10.74,10.74,0,0,1-3.22-7.91,11.08,11.08,0,0,1,3.22-7.91,11.25,11.25,0,0,1,8.06-3.22H686.14Z"/><path class="cls-3" d="M900.3,212.39q0,25.49-20.65,40.72Q900.3,270,900.3,296.47v44.82a11,11,0,0,1-3.37,8.06,11.32,11.32,0,0,1-15.82,0,11.23,11.23,0,0,1-3.22-8.06V296.47a33.76,33.76,0,0,0-33.69-33.54H748.84q-5.57,0-5.57,5.57v72.8a11.25,11.25,0,0,1-3.22,8.06,11.08,11.08,0,0,1-7.91,3.22,11,11,0,0,1-11.28-11.28V251.65a10.75,10.75,0,0,1,3.22-7.91,11.25,11.25,0,0,1,8.06-3.22H849.77a28.26,28.26,0,0,0,28.13-28.12v-28H732.14a11,11,0,0,1-8.06-3.37,10.74,10.74,0,0,1-3.22-7.91,11.07,11.07,0,0,1,3.22-7.91,11.25,11.25,0,0,1,8.06-3.22H889a11.25,11.25,0,0,1,11.28,11.13v39.26Z"/><path class="cls-3" d="M1047.08,162a56,56,0,0,1,56.1,56V341.29a11,11,0,0,1-3.37,8.06,11.32,11.32,0,0,1-15.82,0,11.23,11.23,0,0,1-3.22-8.06V218a33.76,33.76,0,0,0-33.69-33.54H979.85A32.82,32.82,0,0,0,956,194.22,32.32,32.32,0,0,0,946.15,218V341.29a11.25,11.25,0,0,1-3.22,8.06,11.08,11.08,0,0,1-7.91,3.22,11,11,0,0,1-11.28-11.28V218a56,56,0,0,1,56.1-56h67.24Z"/><path class="cls-3" d="M1149,341.29a11.25,11.25,0,0,1-3.22,8.06,11.08,11.08,0,0,1-7.91,3.22,11,11,0,0,1-11.28-11.28V173.13a11.07,11.07,0,0,1,3.22-7.91,11.25,11.25,0,0,1,8.06-3.22h9.23a10.69,10.69,0,0,1,8.64,4.1L1279.7,316.54a2,2,0,0,0,2.49.59,1.93,1.93,0,0,0,1.46-2.05V173.13a11.07,11.07,0,0,1,3.22-7.91,11.28,11.28,0,0,1,19.19,7.91V341.29a11,11,0,0,1-3.37,8.06,10.76,10.76,0,0,1-7.91,3.22h-9.23a10.68,10.68,0,0,1-8.64-4.1L1153,198a2.23,2.23,0,0,0-2.49-.73,2.17,2.17,0,0,0-1.46,2.2v141.8Z"/><path class="cls-3" d="M1374.33,184.41a21.58,21.58,0,0,0-15.82,6.59,21.27,21.27,0,0,0-6.59,15.82V218a22.51,22.51,0,0,0,22.41,22.56h89.79a44.76,44.76,0,0,1,44.82,44.82v22.41a45,45,0,0,1-44.82,44.82H1340.78a11,11,0,0,1-11.28-11.28,11.07,11.07,0,0,1,3.22-7.91,11.25,11.25,0,0,1,8.06-3.22h123.34a22.51,22.51,0,0,0,22.41-22.41V285.34a22.26,22.26,0,0,0-22.41-22.41h-89.79a42.83,42.83,0,0,1-31.64-13.18A43.32,43.32,0,0,1,1329.5,218V206.82A44.76,44.76,0,0,1,1374.33,162h123.34a11.25,11.25,0,0,1,11.28,11.13,11.51,11.51,0,0,1-11.28,11.28H1374.33Z"/><path class="cls-3" d="M1689.42,173.13a11.07,11.07,0,0,1,3.22-7.91,11.28,11.28,0,0,1,19.19,7.91V341.29a11,11,0,0,1-3.37,8.06,11.32,11.32,0,0,1-15.82,0,11.23,11.23,0,0,1-3.22-8.06v-72.8q0-5.56-5.71-5.57H1560.36q-5.57,0-5.57,5.57v72.8a11.25,11.25,0,0,1-3.22,8.06,11.08,11.08,0,0,1-7.91,3.22,11,11,0,0,1-11.28-11.28V173.13a11.07,11.07,0,0,1,3.22-7.91,11.25,11.25,0,0,1,8.06-3.22,11,11,0,0,1,11.13,11.13V234.8q0,5.71,5.57,5.71H1683.7q5.71,0,5.71-5.71V173.13Z"/><path class="cls-3" d="M1791.37,352.57a56,56,0,0,1-56.1-56.1V173.13a11.07,11.07,0,0,1,3.22-7.91,11.25,11.25,0,0,1,8.06-3.22,11,11,0,0,1,11.13,11.13V296.47a33.51,33.51,0,0,0,33.69,33.69h67.24a33.76,33.76,0,0,0,33.69-33.69V173.13a11.07,11.07,0,0,1,3.22-7.91,11.28,11.28,0,0,1,19.19,7.91V296.47a56,56,0,0,1-56.1,56.1h-67.24Z"/><path class="cls-3" d="M2111,166.1a10.83,10.83,0,0,1,8.79-4.1h8.94A11.25,11.25,0,0,1,2140,173.13V341.29a11,11,0,0,1-3.37,8.06,10.76,10.76,0,0,1-7.91,3.22,11.06,11.06,0,0,1-7.91-3.22,11.23,11.23,0,0,1-3.22-8.06V200.38a2.18,2.18,0,0,0-1.46-2.2,2.4,2.4,0,0,0-2.64.73l-70,87.6a5.49,5.49,0,0,1-8.79,0l-70.17-87.6a2.14,2.14,0,0,0-2.49-.73,2.17,2.17,0,0,0-1.46,2.2V341.29a11.25,11.25,0,0,1-3.22,8.06,11.08,11.08,0,0,1-7.91,3.22,11,11,0,0,1-11.28-11.28V173.13a11.07,11.07,0,0,1,3.22-7.91,11.25,11.25,0,0,1,8.06-3.22h8.94a10.84,10.84,0,0,1,8.79,4.1l67.53,84.52a5.49,5.49,0,0,0,8.79,0Z"/><path class="cls-3" d="M2286.78,162a56,56,0,0,1,56.1,56V341.29a11,11,0,0,1-3.37,8.06,11.32,11.32,0,0,1-15.82,0,11.23,11.23,0,0,1-3.22-8.06V218a33.76,33.76,0,0,0-33.69-33.54h-67.24a32.82,32.82,0,0,0-23.88,9.81,32.32,32.32,0,0,0-9.81,23.73V341.29a11.25,11.25,0,0,1-3.22,8.06,11.08,11.08,0,0,1-7.91,3.22,11,11,0,0,1-11.28-11.28V218a56,56,0,0,1,56.1-56h67.24Z"/><path class="cls-3" d="M2388.73,341.29a11.25,11.25,0,0,1-3.22,8.06,11.08,11.08,0,0,1-7.91,3.22,11,11,0,0,1-11.28-11.28V173.13a11.07,11.07,0,0,1,3.22-7.91,11.25,11.25,0,0,1,8.06-3.22h9.23a10.69,10.69,0,0,1,8.64,4.1L2519.4,316.54a2,2,0,0,0,2.49.59,1.93,1.93,0,0,0,1.46-2.05V173.13a11.07,11.07,0,0,1,3.22-7.91,11.28,11.28,0,0,1,19.19,7.91V341.29a11,11,0,0,1-3.37,8.06,10.76,10.76,0,0,1-7.91,3.22h-9.23a10.68,10.68,0,0,1-8.64-4.1L2392.69,198a2.23,2.23,0,0,0-2.49-.73,2.17,2.17,0,0,0-1.46,2.2v141.8Z"/><path class="cls-3" d="M2572.42,349.35a11.23,11.23,0,0,1-3.22-8.06V173.13a11.07,11.07,0,0,1,3.22-7.91,11.25,11.25,0,0,1,8.06-3.22,11,11,0,0,1,11.13,11.13V341.29a11.25,11.25,0,0,1-3.22,8.06,11.08,11.08,0,0,1-7.91,3.22A11.24,11.24,0,0,1,2572.42,349.35Z"/><path class="cls-3" d="M2738.39,162a56,56,0,0,1,56.1,56V341.29a11,11,0,0,1-3.37,8.06,11.32,11.32,0,0,1-15.82,0,11.23,11.23,0,0,1-3.22-8.06V218a33.76,33.76,0,0,0-33.69-33.54h-67.24a32.82,32.82,0,0,0-23.88,9.81,32.32,32.32,0,0,0-9.81,23.73V341.29a11.25,11.25,0,0,1-3.22,8.06,11.08,11.08,0,0,1-7.91,3.22,11,11,0,0,1-11.28-11.28V218a56,56,0,0,1,56.1-56h67.24Z"/></svg>